<svg xmlns="http://www.w3.org/2000/svg" data-name="Layer 1" viewBox="0 0 512 512" id="events"><path d="M328.37988,285.75586H350.207a22.52586,22.52586,0,0,0,22.5-22.5v-21.584a22.52585,22.52585,0,0,0-22.5-22.5H328.37988a22.52585,22.52585,0,0,0-22.5,22.5v21.584A22.52586,22.52586,0,0,0,328.37988,285.75586Zm-7.5-44.084a7.5082,7.5082,0,0,1,7.5-7.5H350.207a7.5082,7.5082,0,0,1,7.5,7.5v21.584a7.5082,7.5082,0,0,1-7.5,7.5H328.37988a7.5082,7.5082,0,0,1-7.5-7.5Zm90.793,230.15624H433.5a22.52585,22.52585,0,0,0,22.5-22.5v-21.584a22.52586,22.52586,0,0,0-22.5-22.5H411.67285a22.52586,22.52586,0,0,0-22.5,22.5v21.584A22.52585,22.52585,0,0,0,411.67285,471.82812Zm-7.5-44.084a7.5082,7.5082,0,0,1,7.5-7.5H433.5a7.5082,7.5082,0,0,1,7.5,7.5v21.584a7.5082,7.5082,0,0,1-7.5,7.5H411.67285a7.5082,7.5082,0,0,1-7.5-7.5ZM369.77441,313.83008a7.50111,7.50111,0,0,0-10.38183,2.17285l-28.15235,43.05078L318.94141,345.459a7.4996,7.4996,0,0,0-11.12305,10.0625l18.81836,20.80176a7.49994,7.49994,0,0,0,5.56055,2.46875q.293,0,.58593-.02246a7.50326,7.50326,0,0,0,5.69239-3.373l33.47168-51.18457A7.50057,7.50057,0,0,0,369.77441,313.83008Zm41.89844-28.07422H433.5a22.52586,22.52586,0,0,0,22.5-22.5v-21.584a22.52585,22.52585,0,0,0-22.5-22.5H411.67285a22.52585,22.52585,0,0,0-22.5,22.5v21.584A22.52586,22.52586,0,0,0,411.67285,285.75586Zm-7.5-44.084a7.5082,7.5082,0,0,1,7.5-7.5H433.5a7.5082,7.5082,0,0,1,7.5,7.5v21.584a7.5082,7.5082,0,0,1-7.5,7.5H411.67285a7.5082,7.5082,0,0,1-7.5-7.5Zm7.5,137.12011H433.5a22.52586,22.52586,0,0,0,22.5-22.5V334.708a22.52586,22.52586,0,0,0-22.5-22.5H411.67285a22.52586,22.52586,0,0,0-22.5,22.5v21.584A22.52586,22.52586,0,0,0,411.67285,378.792Zm-7.5-44.084a7.5082,7.5082,0,0,1,7.5-7.5H433.5a7.5082,7.5082,0,0,1,7.5,7.5v21.584a7.5082,7.5082,0,0,1-7.5,7.5H411.67285a7.5082,7.5082,0,0,1-7.5-7.5ZM245.08691,471.82812h21.82618a22.52585,22.52585,0,0,0,22.5-22.5v-21.584a22.52586,22.52586,0,0,0-22.5-22.5H245.08691a22.52586,22.52586,0,0,0-22.5,22.5v21.584A22.52585,22.52585,0,0,0,245.08691,471.82812Zm-7.5-44.084a7.5082,7.5082,0,0,1,7.5-7.5h21.82618a7.5082,7.5082,0,0,1,7.5,7.5v21.584a7.5082,7.5082,0,0,1-7.5,7.5H245.08691a7.5082,7.5082,0,0,1-7.5-7.5ZM78.5,378.792h21.82715a22.52586,22.52586,0,0,0,22.5-22.5V334.708a22.52586,22.52586,0,0,0-22.5-22.5H78.5a22.52586,22.52586,0,0,0-22.5,22.5v21.584A22.52586,22.52586,0,0,0,78.5,378.792ZM71,334.708a7.5082,7.5082,0,0,1,7.5-7.5h21.82715a7.5082,7.5082,0,0,1,7.5,7.5v21.584a7.5082,7.5082,0,0,1-7.5,7.5H78.5a7.5082,7.5082,0,0,1-7.5-7.5Zm7.5-48.95215h21.82715a22.52586,22.52586,0,0,0,22.5-22.5v-21.584a22.52585,22.52585,0,0,0-22.5-22.5H78.5a22.52585,22.52585,0,0,0-22.5,22.5v21.584A22.52586,22.52586,0,0,0,78.5,285.75586Zm-7.5-44.084a7.5082,7.5082,0,0,1,7.5-7.5h21.82715a7.5082,7.5082,0,0,1,7.5,7.5v21.584a7.5082,7.5082,0,0,1-7.5,7.5H78.5a7.5082,7.5082,0,0,1-7.5-7.5Zm7.5,230.15624h21.82715a22.52585,22.52585,0,0,0,22.5-22.5v-21.584a22.52586,22.52586,0,0,0-22.5-22.5H78.5a22.52586,22.52586,0,0,0-22.5,22.5v21.584A22.52585,22.52585,0,0,0,78.5,471.82812Zm-7.5-44.084a7.5082,7.5082,0,0,1,7.5-7.5h21.82715a7.5082,7.5082,0,0,1,7.5,7.5v21.584a7.5082,7.5082,0,0,1-7.5,7.5H78.5a7.5082,7.5082,0,0,1-7.5-7.5Zm257.37988,44.084H350.207a22.52585,22.52585,0,0,0,22.5-22.5v-21.584a22.52586,22.52586,0,0,0-22.5-22.5H328.37988a22.52586,22.52586,0,0,0-22.5,22.5v21.584A22.52585,22.52585,0,0,0,328.37988,471.82812Zm-7.5-44.084a7.5082,7.5082,0,0,1,7.5-7.5H350.207a7.5082,7.5082,0,0,1,7.5,7.5v21.584a7.5082,7.5082,0,0,1-7.5,7.5H328.37988a7.5082,7.5082,0,0,1-7.5-7.5ZM161.793,471.82812h21.82715a22.52585,22.52585,0,0,0,22.5-22.5v-21.584a22.52586,22.52586,0,0,0-22.5-22.5H161.793a22.52586,22.52586,0,0,0-22.5,22.5v21.584A22.52585,22.52585,0,0,0,161.793,471.82812Zm-7.5-44.084a7.5082,7.5082,0,0,1,7.5-7.5h21.82715a7.5082,7.5082,0,0,1,7.5,7.5v21.584a7.5082,7.5082,0,0,1-7.5,7.5H161.793a7.5082,7.5082,0,0,1-7.5-7.5ZM454,53h-5.5V35a35,35,0,0,0-70,0V53h-245V35a35,35,0,0,0-70,0V53H58a47.554,47.554,0,0,0-47.5,47.5v364A47.554,47.554,0,0,0,58,512H454a47.554,47.554,0,0,0,47.5-47.5v-364A47.554,47.554,0,0,0,454,53ZM393.5,35a20,20,0,0,1,40,0v71a20,20,0,0,1-40,0Zm-315,0a20,20,0,0,1,40,0v71a20,20,0,0,1-40,0Zm408,429.5A32.53637,32.53637,0,0,1,454,497H58a32.53637,32.53637,0,0,1-32.5-32.5V194h461Zm0-285.5H25.5V100.5A32.53637,32.53637,0,0,1,58,68h5.5v38a35,35,0,0,0,70,0V68h245v38a35,35,0,0,0,70,0V68H454a32.53637,32.53637,0,0,1,32.5,32.5ZM161.793,378.792h21.82715a22.52586,22.52586,0,0,0,22.5-22.5V334.708a22.52586,22.52586,0,0,0-22.5-22.5H161.793a22.52586,22.52586,0,0,0-22.5,22.5v21.584A22.52586,22.52586,0,0,0,161.793,378.792Zm-7.5-44.084a7.5082,7.5082,0,0,1,7.5-7.5h21.82715a7.5082,7.5082,0,0,1,7.5,7.5v21.584a7.5082,7.5082,0,0,1-7.5,7.5H161.793a7.5082,7.5082,0,0,1-7.5-7.5Zm90.79394-48.95215h21.82618a22.52586,22.52586,0,0,0,22.5-22.5v-21.584a22.52585,22.52585,0,0,0-22.5-22.5H245.08691a22.52585,22.52585,0,0,0-22.5,22.5v21.584A22.52586,22.52586,0,0,0,245.08691,285.75586Zm-7.5-44.084a7.5082,7.5082,0,0,1,7.5-7.5h21.82618a7.5082,7.5082,0,0,1,7.5,7.5v21.584a7.5082,7.5082,0,0,1-7.5,7.5H245.08691a7.5082,7.5082,0,0,1-7.5-7.5Zm7.5,137.12011h21.82618a22.52586,22.52586,0,0,0,22.5-22.5V334.708a22.52586,22.52586,0,0,0-22.5-22.5H245.08691a22.52586,22.52586,0,0,0-22.5,22.5v21.584A22.52586,22.52586,0,0,0,245.08691,378.792Zm-7.5-44.084a7.5082,7.5082,0,0,1,7.5-7.5h21.82618a7.5082,7.5082,0,0,1,7.5,7.5v21.584a7.5082,7.5082,0,0,1-7.5,7.5H245.08691a7.5082,7.5082,0,0,1-7.5-7.5ZM161.793,285.75586h21.82715a22.52586,22.52586,0,0,0,22.5-22.5v-21.584a22.52585,22.52585,0,0,0-22.5-22.5H161.793a22.52585,22.52585,0,0,0-22.5,22.5v21.584A22.52586,22.52586,0,0,0,161.793,285.75586Zm-7.5-44.084a7.5082,7.5082,0,0,1,7.5-7.5h21.82715a7.5082,7.5082,0,0,1,7.5,7.5v21.584a7.5082,7.5082,0,0,1-7.5,7.5H161.793a7.5082,7.5082,0,0,1-7.5-7.5Z"></path></svg>