<svg xmlns="http://www.w3.org/2000/svg" enable-background="new 0 0 70 70" viewBox="0 0 70 70" id="exchange"><path d="M38.1401367 68.0007324H67c.5522461 0 1-.4477539 1-1v-10.050293c0-3.4848633-3.3105469-6.3198242-7.3798828-6.3198242h-2.800293c-.5024414 0-.9272461.3730469-.9916992.871582-.265625 2.0522461-1.9370117 3.378418-4.2583008 3.378418-2.3925781 0-3.9824219-1.7607422-4.2641602-3.4174805-.081543-.480957-.4980469-.8325195-.9858398-.8325195h-2.7998047c-4.0693359 0-7.3798828 2.8349609-7.3798828 6.3198242v10.050293C37.1401367 67.5529785 37.5878906 68.0007324 38.1401367 68.0007324zM39.1401367 56.9504395c0-2.3818359 2.4135742-4.3198242 5.3798828-4.3198242h2.0263672c.7441406 2.1870117 2.9262695 4.25 6.0234375 4.25 3.0092773 0 5.3452148-1.6738281 6.0654297-4.25h1.9848633C63.5864258 52.6306152 66 54.5686035 66 56.9504395v9.050293h-4.8383789v-4.3100586c0-.5522461-.4477539-1-1-1s-1 .4477539-1 1v4.3100586H45.9785156v-4.3100586c0-.5522461-.4477539-1-1-1s-1 .4477539-1 1v4.3100586h-4.8383789V56.9504395zM52.5698242 28.7199707c-5.7895508 0-10.5 4.7104492-10.5 10.5s4.7104492 10.5 10.5 10.5 10.5-4.7104492 10.5-10.5S58.359375 28.7199707 52.5698242 28.7199707zM52.5698242 47.7199707c-4.6870117 0-8.5-3.8129883-8.5-8.5s3.8129883-8.5 8.5-8.5 8.5 3.8129883 8.5 8.5S57.2568359 47.7199707 52.5698242 47.7199707z"></path><path d="M57.1201172 35.9821777h-1.3398438c-.5522461 0-1 .4477539-1 1s.4477539 1 1 1h1.3398438c.5522461 0 1-.4477539 1-1S57.6723633 35.9821777 57.1201172 35.9821777zM49.359375 37.9821777c.5522461 0 1-.4477539 1-1s-.4477539-1-1-1h-1.3393555c-.5522461 0-1 .4477539-1 1s.4477539 1 1 1H49.359375zM56.6669922 41.2902832c-.4824219-.2666016-1.0922852-.0917969-1.359375.390625-.5297852.9570313-1.4511719 1.4423828-2.737793 1.4423828-1.3222656 0-2.3291016-.5058594-2.6938477-1.3535156-.2182617-.5073242-.8066406-.7426758-1.3139648-.5229492-.5073242.2182617-.7412109.8066406-.5229492 1.3139648.6904297 1.6044922 2.3842773 2.5625 4.5307617 2.5625 2.0107422 0 3.6044922-.878418 4.487793-2.4736328C57.3251953 42.166748 57.1503906 41.5578613 56.6669922 41.2902832zM3 41.2800293h28.8598633c.5522461 0 1-.4477539 1-1v-10.050293c0-3.4848633-3.3105469-6.3198242-7.3798828-6.3198242h-2.7998047c-.5024414 0-.9272461.3730469-.9916992.871582-.2661133 2.0522461-1.9375 3.378418-4.2583008 3.378418-2.3930664 0-3.9829102-1.7607422-4.2641602-3.4174805-.081543-.4804688-.4980469-.8325195-.9858398-.8325195h-2.800293C5.3105469 23.9099121 2 26.744873 2 30.2297363v10.050293C2 40.8322754 2.4477539 41.2800293 3 41.2800293zM4 30.2297363c0-2.3818359 2.4135742-4.3198242 5.3798828-4.3198242h2.0268555c.7436523 2.1870117 2.9257813 4.25 6.0234375 4.25 3.0087891 0 5.3442383-1.6743164 6.0649414-4.25h1.9848633c2.9663086 0 5.3798828 1.9379883 5.3798828 4.3198242v9.050293h-4.8383789v-4.3100586c0-.5522461-.4477539-1-1-1s-1 .4477539-1 1v4.3100586H10.8383789v-4.3100586c0-.5522461-.4477539-1-1-1s-1 .4477539-1 1v4.3100586H4V30.2297363zM6.9301758 12.4992676c0 5.7895508 4.7104492 10.5 10.5 10.5s10.5-4.7104492 10.5-10.5-4.7104492-10.5-10.5-10.5S6.9301758 6.7097168 6.9301758 12.4992676zM25.9301758 12.4992676c0 4.6870117-3.8129883 8.5-8.5 8.5s-8.5-3.8129883-8.5-8.5 3.8129883-8.5 8.5-8.5S25.9301758 7.8122559 25.9301758 12.4992676z"></path><path d="M20.640625 11.2614746h1.3393555c.5522461 0 1-.4477539 1-1s-.4477539-1-1-1H20.640625c-.5522461 0-1 .4477539-1 1S20.0883789 11.2614746 20.640625 11.2614746zM14.2197266 11.2614746c.5522461 0 1-.4477539 1-1s-.4477539-1-1-1h-1.3398438c-.5522461 0-1 .4477539-1 1s.4477539 1 1 1H14.2197266zM21.5268555 14.5690918c-.4833984-.2670898-1.0917969-.0913086-1.359375.390625-.5297852.9575195-1.4506836 1.4428711-2.7373047 1.4428711-1.3222656 0-2.3295898-.5058594-2.6943359-1.3535156-.2177734-.5078125-.8071289-.7431641-1.3134766-.5234375-.5073242.2182617-.7416992.8061523-.5234375 1.3134766.6904297 1.6049805 2.3842773 2.5634766 4.53125 2.5634766 2.0107422 0 3.6040039-.8789063 4.4873047-2.4741211C22.1850586 15.4450684 22.0097656 14.8366699 21.5268555 14.5690918zM65.9433594 18.5959473c-.4204102-.359375-1.0512695-.3100586-1.4101563.109375l-2.9557495 3.4545898C60.317627 11.2171021 51.0019531 2.6906738 39.7270508 2.6906738c-.5522461 0-1 .4477539-1 1s.4477539 1 1 1c10.2670288 0 18.7427979 7.7790527 19.8652954 17.7510986l-3.5757446-2.9835205c-.4243164-.3540039-1.0537109-.2973633-1.4086914.1269531-.3535156.4238281-.296875 1.0546875.1274414 1.4086914l5.3515625 4.4648438c.0471191.0393677.102417.0588379.1539917.0881348.0419922.0239868.0787354.0532837.1242065.071106.1170654.0457764.2388306.0731812.3619385.0731812.000061 0 .0001831-.000061.0002441-.000061s.0001831.000061.0002441.000061c.1426392 0 .2769775-.0318604.3997803-.0856934.0299072-.0130005.0526733-.0389404.0813599-.0549316.0921021-.0518188.1783447-.1098633.2493896-.1870728.008606-.0092773.0209351-.012207.0292358-.0219116l4.5654297-5.3354492C66.4116211 19.5861816 66.362793 18.954834 65.9433594 18.5959473zM15.3920898 50.4147949c.3535156-.4238281.296875-1.0546875-.1274414-1.4082031l-5.3515625-4.465332c-.0369263-.0308838-.0818481-.0415649-.121582-.0662842-.0582275-.036377-.1132202-.0734253-.1785889-.0973511-.0706177-.0259399-.1419067-.0341187-.215332-.0435181-.0428467-.0056152-.0807495-.0252686-.1251221-.0252686-.0134277 0-.0244751.0070801-.0377808.0076294-.0776367.0028687-.1504517.0247803-.2255859.0455933-.0512695.0142822-.1040039.020813-.1515503.0427246-.057373.0262451-.1051636.0686035-.1574707.1061401-.0547485.0393677-.1109009.0738525-.1566162.123291-.0091553.0098877-.0219116.013855-.0307617.024231l-4.5654297 5.3354492c-.3588867.4199219-.3100586 1.0512695.109375 1.4101563.1889648.1611328.4199219.2402344.6499023.2402344.2822266 0 .5625-.1186523.7602539-.3496094l2.9557495-3.4545898C9.682373 58.7828979 18.9980469 67.3093262 30.2729492 67.3093262c.5522461 0 1-.4477539 1-1s-.4477539-1-1-1c-10.2670288 0-18.7427979-7.7790527-19.8652954-17.7510986l3.5757446 2.9835205C14.4067383 50.8952637 15.0375977 50.8391113 15.3920898 50.4147949z"></path></svg>