<svg xmlns="http://www.w3.org/2000/svg" width="48" height="48" id="premium"><path fill="#ffffff" style="line-height:normal;text-indent:0;text-align:start;text-decoration-line:none;text-decoration-style:solid;text-decoration-color:#000;text-transform:none;block-progression:tb;isolation:auto;mix-blend-mode:normal" d="M24 0C10.751 0 0 10.751 0 24s10.751 24 24 24 24-10.751 24-24S37.249 0 24 0zm0 1c12.708 0 23 10.291 23 23S36.708 47 24 47 1 36.709 1 24 11.292 1 24 1zm-1.418 9.006v.004a.682.682 0 0 0-.232 0c-.207.037-.266.11-.336.168-.07.058-.132.118-.194.183-.124.132-.251.285-.377.436-.125.15-.249.299-.343.404-.025.028-.04.04-.059.06-.027 0-.045.001-.08-.009a15.015 15.015 0 0 1-.518-.086 9.228 9.228 0 0 0-.566-.088c-.09-.01-.175-.02-.266-.02-.09 0-.183-.014-.363.092s-.21.194-.256.272a2.059 2.059 0 0 0-.119.238 9.381 9.381 0 0 0-.209.541c-.067.186-.132.366-.185.498-.015.036-.024.054-.036.08a.517.517 0 0 1-.08.024c-.136.03-.326.062-.517.097a9.546 9.546 0 0 0-.56.116c-.088.022-.17.045-.255.078-.085.033-.178.05-.31.21-.13.16-.131.252-.149.34a2.056 2.056 0 0 0-.031.264c-.012.182-.011.383-.012.58 0 .198-.002.393-.008.535-.001.04-.003.062-.005.092l-.073.05c-.118.075-.282.171-.45.27-.17.1-.342.202-.491.303a2.06 2.06 0 0 0-.211.162c-.068.06-.15.107-.219.301-.07.194-.037.28-.023.37.014.09.034.172.058.26.05.174.118.364.184.55.066.185.131.366.174.502.012.039.017.06.025.09-.017.024-.028.042-.053.074-.085.113-.209.26-.333.412a9.33 9.33 0 0 0-.358.455c-.053.073-.1.143-.142.223-.044.085-.104.16-.104.365s.06.275.104.355c.043.08.09.151.142.225.106.147.233.301.358.453.124.152.248.3.334.412l.052.07c-.008.03-.013.053-.025.092-.043.136-.108.319-.174.504-.066.186-.134.375-.184.55-.024.086-.044.169-.058.259-.014.09-.046.175.023.369.07.194.15.24.219.3.068.06.136.112.211.163.15.102.322.201.49.3.169.1.333.196.451.272.033.021.049.038.073.055.002.03.004.05.005.09.006.142.008.337.008.535 0 .197 0 .399.012.58.006.09.014.174.031.264.018.089.017.182.149.341.132.16.225.176.31.21.085.032.167.056.254.078.175.044.369.08.56.115.192.035.382.066.518.097l.08.02.036.082c.053.132.118.314.185.5.067.185.137.373.209.539.036.083.073.16.12.238.046.078.075.166.255.272.18.105.272.09.363.092.091 0 .176-.01.266-.016.039 0 .083-.015.123-.02v9.565a.537.537 0 0 0 .818.459l3.203-1.975 3.157 1.973a.537.537 0 0 0 .822-.46v-9.562c.04.01.084.014.123.018.09.01.175.018.266.016.09 0 .183.014.363-.092s.211-.193.258-.272c.046-.078.083-.155.119-.238.072-.166.14-.353.207-.539.067-.185.132-.368.185-.5.015-.036.026-.053.038-.08.027-.01.044-.014.08-.022.136-.03.324-.062.515-.097.192-.035.388-.072.563-.115.087-.022.169-.046.254-.079.085-.033.176-.049.308-.209.132-.16.131-.252.149-.341.017-.09.025-.173.031-.264.012-.181.013-.382.014-.58 0-.198 0-.393.006-.535.001-.04.003-.06.005-.09.024-.016.04-.032.073-.053.118-.076.284-.172.453-.271.168-.1.339-.2.488-.301a2.06 2.06 0 0 0 .211-.162c.068-.06.15-.107.219-.301.07-.194.037-.28.023-.37a2.069 2.069 0 0 0-.06-.259 9.309 9.309 0 0 0-.182-.549c-.066-.185-.131-.368-.174-.504-.012-.039-.017-.062-.025-.091l.053-.073c.085-.112.209-.26.333-.412.125-.152.252-.306.358-.453.053-.074.101-.145.144-.225.044-.08.102-.15.102-.355 0-.206-.058-.278-.102-.357a2.072 2.072 0 0 0-.144-.225 9.29 9.29 0 0 0-.358-.453c-.124-.152-.248-.3-.334-.412-.024-.032-.035-.05-.052-.074.008-.03.013-.051.025-.09.043-.136.108-.317.174-.502a9.36 9.36 0 0 0 .182-.551c.025-.087.046-.17.06-.26.014-.09.046-.175-.023-.369-.07-.194-.151-.24-.219-.3a2.105 2.105 0 0 0-.211-.163 9.069 9.069 0 0 0-.488-.303c-.169-.099-.335-.195-.453-.271-.033-.021-.05-.034-.073-.05-.002-.03-.004-.052-.005-.093-.006-.142-.006-.337-.006-.535 0-.197-.002-.399-.014-.58a2.054 2.054 0 0 0-.031-.264c-.018-.089-.018-.18-.149-.34-.132-.16-.223-.177-.308-.21a2.089 2.089 0 0 0-.254-.078 8.46 8.46 0 0 0-.563-.116c-.191-.035-.379-.068-.515-.1l-.08-.02c-.012-.027-.023-.045-.038-.08-.053-.133-.118-.313-.185-.499s-.135-.375-.207-.54a2.073 2.073 0 0 0-.12-.24c-.046-.077-.077-.165-.257-.27-.18-.106-.272-.09-.363-.092-.091 0-.176.01-.266.015-.179.02-.375.054-.566.088-.192.034-.38.067-.518.086-.035 0-.053.012-.08.012L26.9 11.2c-.094-.105-.216-.253-.341-.404a9.227 9.227 0 0 0-.38-.436 2 2 0 0 0-.193-.183c-.07-.058-.127-.131-.334-.168-.207-.037-.287.01-.373.04-.086.03-.163.066-.244.106-.161.08-.335.181-.504.28-.169.098-.335.195-.459.261-.032.017-.047.023-.072.035-.025-.012-.042-.018-.074-.035-.124-.066-.288-.163-.457-.261-.17-.098-.34-.2-.502-.28a2.009 2.009 0 0 0-.244-.105c-.043-.015-.084-.034-.141-.045zm-.045 1.05v.005c.116.059.268.145.428.238.166.096.337.196.492.28.078.04.151.078.229.11.077.032.138.069.314.069s.237-.037.314-.069c.078-.032.151-.07.229-.11.156-.084.326-.184.492-.28a9.1 9.1 0 0 1 .43-.238c.09.096.205.231.324.375.123.148.25.302.367.433.06.066.116.127.178.184.062.057.105.115.27.176.164.06.234.044.318.04.083 0 .165-.014.252-.025.174-.024.368-.059.556-.092.182-.032.356-.06.485-.076.052.122.117.293.181.47.066.183.131.37.198.534.033.082.067.158.105.232.039.075.059.145.192.258.133.114.207.123.287.149.08.026.158.043.244.062.172.038.366.073.555.108.183.033.358.068.484.1.008.132.011.317.012.507 0 .194-.002.393.006.57.003.09.01.173.021.256.011.083.006.154.092.305.085.15.15.185.217.236.065.052.133.1.207.147.148.095.319.193.484.29.163.097.32.191.428.264a9.16 9.16 0 0 1-.162.485c-.065.182-.133.37-.186.539a2.735 2.735 0 0 0-.066.246c-.018.082-.045.149-.016.318.03.17.079.224.123.295.044.071.091.139.145.21.107.14.234.292.357.44.121.148.237.294.315.401-.078.107-.194.251-.315.398-.123.15-.25.301-.357.442-.054.07-.1.138-.145.209-.044.07-.093.125-.123.295-.03.17-.002.236.016.318.017.082.04.162.066.246.053.17.12.357.186.54.064.18.125.356.162.484a9.347 9.347 0 0 1-.428.263c-.165.098-.336.198-.484.293a2.787 2.787 0 0 0-.207.145c-.066.052-.132.086-.217.236-.086.15-.08.224-.092.307a2.686 2.686 0 0 0-.021.254c-.008.177-.006.378-.006.572 0 .191-.004.375-.012.508a9.682 9.682 0 0 1-.484.097c-.189.034-.383.067-.555.106-.086.019-.165.04-.244.064-.08.026-.154.035-.287.149-.133.113-.153.183-.192.258-.038.074-.072.15-.105.232-.067.164-.132.353-.198.535-.064.178-.129.348-.181.469a9.335 9.335 0 0 1-.485-.076c-.188-.033-.382-.068-.556-.092a2.47 2.47 0 0 0-.252-.023c-.084 0-.154-.021-.318.039-.165.06-.208.119-.27.175a2.721 2.721 0 0 0-.178.182c-.118.132-.244.285-.367.434-.12.144-.236.279-.326.375a9.49 9.49 0 0 1-.428-.239c-.166-.097-.336-.198-.492-.28a2.793 2.793 0 0 0-.229-.11c-.077-.032-.138-.073-.314-.073s-.237.04-.314.073a2.63 2.63 0 0 0-.229.111c-.155.083-.326.183-.492.28-.16.092-.312.18-.428.238a9.199 9.199 0 0 1-.326-.375c-.123-.149-.25-.302-.367-.434a2.56 2.56 0 0 0-.176-.182c-.062-.057-.105-.117-.27-.177-.164-.061-.236-.044-.32-.041-.084 0-.165.012-.252.023-.174.024-.368.059-.556.092a9.434 9.434 0 0 1-.485.076 9.197 9.197 0 0 1-.18-.469c-.065-.182-.132-.37-.199-.535a2.724 2.724 0 0 0-.105-.232c-.039-.074-.059-.145-.192-.258-.133-.113-.205-.123-.285-.149a2.59 2.59 0 0 0-.246-.064c-.172-.038-.364-.07-.553-.105a8.656 8.656 0 0 1-.486-.098 9.355 9.355 0 0 1-.01-.508c0-.194 0-.395-.008-.572a2.714 2.714 0 0 0-.019-.254c-.011-.083-.008-.156-.094-.307-.085-.15-.15-.184-.217-.236a2.515 2.515 0 0 0-.207-.145c-.148-.095-.318-.195-.484-.293a9.06 9.06 0 0 1-.428-.263c.037-.128.096-.304.16-.485.065-.182.135-.37.188-.539.027-.085.049-.164.066-.246.018-.082.045-.148.016-.318-.03-.17-.079-.224-.123-.295a2.695 2.695 0 0 0-.147-.207c-.107-.14-.233-.294-.355-.443a9.014 9.014 0 0 1-.315-.399 8.94 8.94 0 0 1 .315-.4c.122-.15.248-.3.355-.442.054-.07.103-.137.147-.209.044-.07.093-.125.123-.295.03-.17.002-.236-.016-.318a2.688 2.688 0 0 0-.066-.246c-.053-.17-.123-.357-.188-.54a8.93 8.93 0 0 1-.16-.483c.109-.073.265-.168.428-.264.166-.098.336-.196.484-.291a2.8 2.8 0 0 0 .207-.147c.066-.052.132-.086.217-.236.086-.15.083-.222.094-.305.011-.083.016-.167.02-.255.007-.178.007-.377.007-.57 0-.191.002-.376.01-.509.126-.03.303-.065.486-.1.189-.033.381-.068.553-.107.086-.019.167-.037.246-.062.08-.026.152-.035.285-.149.133-.113.153-.183.192-.257.038-.074.072-.15.105-.233.067-.164.134-.35.2-.533.064-.178.127-.35.18-.47.128.014.301.043.484.075.188.033.382.068.556.092.087.012.169.023.252.026.084 0 .156.02.32-.041.165-.061.208-.12.27-.176a2.74 2.74 0 0 0 .176-.184c.118-.131.244-.285.367-.433.12-.144.236-.28.326-.375zm1.442 1.946A6.486 6.486 0 0 0 17.5 19.48a6.484 6.484 0 0 0 6.479 6.477 6.484 6.484 0 0 0 6.478-6.477 6.486 6.486 0 0 0-6.478-6.478zm0 .941a5.53 5.53 0 0 1 5.535 5.537 5.527 5.527 0 0 1-5.535 5.534 5.526 5.526 0 0 1-5.534-5.534 5.529 5.529 0 0 1 5.534-5.537zm.001 1.68c-.29 0-.405.148-.492.242-.086.094-.148.191-.21.295a7.856 7.856 0 0 0-.36.7c-.116.246-.229.49-.32.675-.042.084-.076.152-.104.2a2.915 2.915 0 0 1-.22.042c-.204.033-.473.062-.743.1-.27.037-.54.079-.777.137a1.743 1.743 0 0 0-.342.113c-.115.055-.29.12-.379.396-.088.276.016.434.078.545.063.112.133.202.213.293.16.184.358.371.557.557.199.186.4.366.547.51.067.066.118.12.154.162a3.056 3.056 0 0 1-.027.22c-.032.204-.085.471-.133.739a7.86 7.86 0 0 0-.111.78 1.69 1.69 0 0 0 .003.357c.017.126.029.315.264.484.236.169.416.119.541.094.125-.025.23-.064.342-.112.224-.095.464-.224.703-.355.239-.132.475-.266.658-.361.084-.044.151-.078.201-.1.05.02.118.055.202.098.184.093.421.223.662.351.24.129.482.256.707.348.112.046.218.084.343.107.126.024.308.07.542-.101.233-.172.243-.36.257-.487a1.705 1.705 0 0 0-.002-.359 7.844 7.844 0 0 0-.12-.777c-.052-.268-.107-.532-.141-.735a3.182 3.182 0 0 1-.032-.22c.036-.041.086-.096.153-.163.145-.146.344-.329.54-.517.198-.189.392-.381.55-.567.078-.093.15-.182.21-.294.062-.112.162-.269.07-.543-.09-.275-.266-.342-.382-.395a1.732 1.732 0 0 0-.344-.11 7.902 7.902 0 0 0-.777-.124c-.27-.034-.54-.064-.744-.094a3.307 3.307 0 0 1-.22-.04 3.248 3.248 0 0 1-.108-.194c-.094-.184-.21-.43-.328-.674a7.86 7.86 0 0 0-.368-.696 1.724 1.724 0 0 0-.214-.29c-.088-.094-.207-.237-.497-.235a.5.5 0 0 0-.002 0v-.002zm.01 1.334c.058.11.11.198.17.324.114.236.23.48.338.692.054.105.104.204.16.293.056.089.09.166.244.277.155.11.238.114.34.139.102.024.211.043.328.06.235.035.505.065.766.098.14.017.24.037.361.056-.086.088-.152.165-.254.262-.19.182-.39.368-.558.535a3.79 3.79 0 0 0-.225.243c-.067.08-.132.135-.19.316-.057.18-.037.263-.029.367.009.104.026.214.045.33.04.234.095.499.145.756.026.138.037.24.056.361-.11-.055-.204-.096-.328-.162-.231-.123-.47-.256-.681-.363a3.848 3.848 0 0 0-.301-.139c-.097-.039-.17-.085-.36-.084-.19 0-.262.047-.359.088-.097.04-.195.09-.3.145-.21.11-.447.244-.676.37-.124.069-.218.11-.328.167.017-.122.03-.223.054-.361.047-.258.098-.526.135-.76.018-.117.034-.224.041-.328.007-.105.027-.187-.033-.368-.06-.18-.125-.235-.194-.314a3.992 3.992 0 0 0-.23-.24c-.17-.166-.37-.35-.563-.53-.102-.096-.17-.17-.257-.257.121-.021.22-.042.359-.06.26-.037.531-.07.766-.108.117-.02.224-.037.326-.063.101-.025.187-.032.34-.144.153-.113.183-.19.238-.28.055-.089.105-.187.158-.293.106-.212.219-.46.33-.697.06-.127.11-.214.166-.324v-.004zM21.074 27.77c.008.01.015.011.026.023.094.105.218.253.343.404.126.151.253.305.377.436.063.066.123.126.194.183.07.058.129.131.336.168.206.037.287-.01.373-.04a2.02 2.02 0 0 0 .244-.106c.161-.08.333-.181.502-.28.011-.01.02-.01.031-.017v4.457h1v-4.457c.011.01.02.01.031.018.17.098.343.198.504.279.08.04.158.076.244.105.086.03.166.078.373.041s.264-.11.334-.168c.07-.057.132-.117.194-.183a9.24 9.24 0 0 0 .379-.436c.125-.15.247-.299.341-.404.011-.012.018-.015.026-.023v8.724l-2.617-1.635a.537.537 0 0 0-.567 0l-2.668 1.643V27.77z" color="#000" font-family="sans-serif" font-weight="400" overflow="visible"></path></svg>
