<svg xmlns="http://www.w3.org/2000/svg" data-name="Layer 1" viewBox="0 0 512 512" id="it-verification"><path fill="#ffffff" d="M276.665,282.99316l-32.10449,32.10352-9.34864-9.34863a7.50023,7.50023,0,0,0-10.60644,10.60742l14.65185,14.65137a7.50083,7.50083,0,0,0,10.60645,0l37.40771-37.40625A7.50024,7.50024,0,1,0,276.665,282.99316ZM452,0c-.3772,0-.75012.01794-1.12476.02856C450.68774.01453,450.50049,0,450.30957,0H121.31006a37.54226,37.54226,0,0,0-37.5,37.5V427H28.314a7.49975,7.49975,0,0,0-7.5,7.5v40a37.54227,37.54227,0,0,0,37.5,37.5H391.31445a7.55579,7.55579,0,0,0,.81519-.04614A37.5448,37.5448,0,0,0,427.81445,474.5V85h55.8711a7.49944,7.49944,0,0,0,7.5-7.5V39.18555A39.22937,39.22937,0,0,0,452,0ZM58.314,497a22.52555,22.52555,0,0,1-22.5-22.5V442H349.81445v31a38.79529,38.79529,0,0,0,8.293,24ZM412.81445,39.18555V473a24,24,0,0,1-48,0V434.5a7.49943,7.49943,0,0,0-7.5-7.5c-.16882,0-.334.01416-.5.02515-.166-.011-.33117-.02515-.5-.02515H98.81006V37.5a22.52554,22.52554,0,0,1,22.5-22.5H421.20288A38.98029,38.98029,0,0,0,412.81445,39.18555ZM476.18555,70h-48.3711V39.18555a24.18555,24.18555,0,1,1,48.3711,0ZM340.57031,281.125c-2.26367-7.40234-9.36426-10.94531-15.07031-13.792-2.54492-1.26953-6.0293-3.00781-6.87988-4.22363-.96973-1.38477-1.42578-5.24512-1.791-8.34668-.73437-6.21387-1.64648-13.94727-7.63476-18.45118-6.03223-4.53906-13.75684-3.26757-19.96289-2.24609-2.89063.47559-6.85157,1.127-8.38575.59668-1.48144-.51074-4.16211-3.43164-6.11914-5.56445-4.28222-4.666-9.61133-10.47266-17.24511-10.6045-.08887-.001-.17676-.00195-.26465-.00195-7.2544,0-12.38868,5.18457-16.92383,9.76465-2.23438,2.25684-5.01563,5.06543-6.72168,5.58691-1.707.51856-5.58252-.25195-8.69629-.873-6.39844-1.27832-13.64941-2.72266-19.70752,1.51757-6.25586,4.37793-7.42676,12.17188-8.36768,18.43458-.43017,2.86328-1.019,6.78417-1.96093,8.03613-.977,1.29883-4.62354,2.97168-7.28614,4.19336-5.7163,2.62207-12.83056,5.88672-15.29492,13.02441-2.44482,7.083,1.12256,14.00488,3.98877,19.56641,1.43115,2.77636,3.21192,6.23144,3.18262,7.92285-.02539,1.48242-1.9419,4.87109-3.3418,7.34668-3.13916,5.55078-7.04541,12.46-4.78222,19.8623,2.26318,7.40332,9.36474,10.94629,15.07128,13.793,2.54444,1.26953,6.0293,3.00781,6.88038,4.22363.96923,1.38477,1.4248,5.24512,1.79052,8.34668.7334,6.21387,1.64649,13.94727,7.63428,18.45118,6.03418,4.54,13.75732,3.26855,19.96289,2.24609,2.89063-.47559,6.84912-1.127,8.38623-.59668,1.481.51074,4.16162,3.43164,6.11914,5.56445,4.28223,4.666,9.61084,10.47266,17.24463,10.6045.08887.001.17627.00195.26465.00195,7.25391,0,12.38867-5.18457,16.92383-9.76465,2.23437-2.25684,5.01562-5.06543,6.72168-5.58691,1.707-.51856,5.582.25195,8.69629.873,6.39843,1.27735,13.64941,2.72364,19.708-1.51757,6.25489-4.37793,7.42579-12.17188,8.36719-18.43458.42969-2.86328,1.01856-6.78417,1.96094-8.03613.97754-1.29883,4.62305-2.97168,7.28613-4.19336,5.7168-2.62207,12.83106-5.88672,15.29492-13.02441,2.44434-7.083-1.12207-14.00391-3.98828-19.56543-1.43164-2.77734-3.21191-6.23242-3.18261-7.92383.02539-1.48242,1.94238-4.87207,3.34179-7.34668C338.92773,295.4375,342.835,288.52832,340.57031,281.125ZM322.2959,323.12988c1.17676,2.28223,3.36621,6.53125,3.15234,7.77539-.5957,1.19727-5.00976,3.22266-7.38086,4.31055-4.57324,2.09863-9.75781,4.47656-13.0166,8.80859-3.22461,4.28711-4.0664,9.88575-4.80859,14.8252-.39453,2.626-1.12891,7.51465-2.06934,8.335-1.19726.54-5.60449-.33887-8.2373-.86426-5.01465-1-10.69922-2.13476-16.0166-.50683-5.31934,1.626-9.39747,5.74316-12.99512,9.37695-1.8877,1.90625-5.04834,5.09863-6.25977,5.31934-1.32519-.15137-4.667-3.793-6.4624-5.749-3.37793-3.68066-7.20605-7.85254-12.27637-9.60254a20.21873,20.21873,0,0,0-6.6333-1.00976,56.2615,56.2615,0,0,0-9.08447.98535c-2.57422.4248-7.36475,1.21387-8.4751.59668-.92724-.95508-1.4873-5.70117-1.78808-8.251-.59278-5.02148-1.26465-10.71191-4.39893-15.19043-3.03467-4.33594-8.04883-6.83789-12.47266-9.04492-2.28613-1.13965-7.04345-3.51367-7.42285-4.75586-.37988-1.24121,2.23682-5.86914,3.49463-8.09375,2.43359-4.30273,5.19141-9.17969,5.28272-14.47168.09423-5.46484-2.53125-10.55859-4.84717-15.05273-1.17676-2.28321-3.36621-6.53125-3.15332-7.77539.5957-1.19727,5.00976-3.22168,7.38135-4.31055,4.57373-2.09863,9.7583-4.47656,13.01757-8.80859,3.22461-4.28711,4.06543-9.88575,4.80762-14.8252.39453-2.626,1.12891-7.51465,2.06982-8.335,1.20167-.541,5.606.33887,8.23731.86426,5.01465,1,10.70019,2.13574,16.0166.50683,5.31983-1.626,9.397-5.74316,12.99463-9.37695,1.88818-1.90625,5.04883-5.09863,6.26025-5.31934,1.3252.15137,4.667,3.793,6.46289,5.749,3.37793,3.68066,7.20606,7.85254,12.27637,9.60254,5.12305,1.76758,10.75293.84277,15.71778.02441,2.57421-.42383,7.36328-1.21289,8.4746-.59668.92676.95508,1.48731,5.70215,1.78809,8.25195.59277,5.02051,1.26465,10.71094,4.39941,15.18946,3.03418,4.33594,8.04883,6.83691,12.47266,9.04492,2.28613,1.13965,7.043,3.51367,7.42285,4.75488v.001c.37989,1.24219-2.2373,5.86914-3.49511,8.09375-2.4336,4.30273-5.19141,9.18066-5.28223,14.4707C317.35449,313.542,319.97949,318.63574,322.2959,323.12988ZM136.562,201H375.31445a7.5,7.5,0,1,0,0-15H136.562a7.5,7.5,0,0,0,0,15Zm0-45H375.31445a7.5,7.5,0,1,0,0-15H136.562a7.5,7.5,0,0,0,0,15Zm16.688-45H359.5A22.52586,22.52586,0,0,0,382,88.5v-21A22.52586,22.52586,0,0,0,359.5,45H153.25a22.52554,22.52554,0,0,0-22.5,22.5v21A22.52554,22.52554,0,0,0,153.25,111Zm-7.5-43.5a7.5082,7.5082,0,0,1,7.5-7.5H359.5a7.5082,7.5082,0,0,1,7.5,7.5v21a7.5082,7.5082,0,0,1-7.5,7.5H153.25a7.5082,7.5082,0,0,1-7.5-7.5Z"></path></svg>
