<svg width="22" height="22" viewBox="0 0 22 22" fill="none" xmlns="http://www.w3.org/2000/svg">
<path d="M11 22C17.0753 22 22 17.0753 22 11V3.3C22 2.42478 21.6523 1.58542 21.0335 0.966546C20.4146 0.347677 19.5752 0 18.7 0H11.55V4.82569C11.55 5.92679 11.6171 7.06749 12.1946 8.00469C12.608 8.67635 13.1611 9.25123 13.8163 9.69033C14.4715 10.1294 15.2134 10.4224 15.9918 10.5495L16.2025 10.5836C16.2893 10.6133 16.3647 10.6694 16.4181 10.7441C16.4714 10.8187 16.5001 10.9082 16.5001 11C16.5001 11.0918 16.4714 11.1812 16.4181 11.2559C16.3647 11.3306 16.2893 11.3867 16.2025 11.4163L15.9918 11.4504C14.8545 11.6362 13.8043 12.1745 12.9894 12.9894C12.1746 13.8043 11.6362 14.8545 11.4505 15.9918L11.4164 16.2024C11.3867 16.2893 11.3306 16.3647 11.2559 16.418C11.1813 16.4714 11.0918 16.5001 11 16.5001C10.9082 16.5001 10.8188 16.4714 10.7441 16.418C10.6694 16.3647 10.6133 16.2893 10.5837 16.2024L10.5496 15.9918C10.4224 15.2134 10.1294 14.4714 9.69031 13.8163C9.25122 13.1611 8.67636 12.608 8.00472 12.1946C7.06752 11.6171 5.92682 11.55 4.82572 11.55H0.0132263C0.300876 17.3695 5.10952 22 11 22Z" fill="#B1E346"/>
<path d="M0 10.45H4.82569C5.92679 10.45 7.06749 10.3829 8.00469 9.80539C8.7373 9.354 9.354 8.7373 9.80539 8.00469C10.3829 7.06749 10.45 5.92679 10.45 4.82569V0H3.3C2.42478 0 1.58542 0.347677 0.966546 0.966546C0.347677 1.58542 0 2.42478 0 3.3V10.45Z" fill="#B1E346"/>
</svg>
