<svg width="124" height="22" viewBox="0 0 124 22" fill="none" xmlns="http://www.w3.org/2000/svg">
<g clip-path="url(#clip0_49_1150)">
<path d="M11 22C17.0753 22 22 17.0753 22 11V3.3C22 2.42478 21.6523 1.58542 21.0335 0.966546C20.4146 0.347677 19.5752 0 18.7 0H11.55V4.82569C11.55 5.92679 11.6171 7.06749 12.1946 8.00469C12.608 8.67635 13.1611 9.25123 13.8163 9.69033C14.4715 10.1294 15.2134 10.4224 15.9918 10.5495L16.2025 10.5836C16.2893 10.6133 16.3647 10.6694 16.4181 10.7441C16.4714 10.8187 16.5001 10.9082 16.5001 11C16.5001 11.0918 16.4714 11.1812 16.4181 11.2559C16.3647 11.3306 16.2893 11.3867 16.2025 11.4163L15.9918 11.4504C14.8545 11.6362 13.8043 12.1745 12.9894 12.9894C12.1746 13.8043 11.6362 14.8545 11.4505 15.9918L11.4164 16.2024C11.3867 16.2893 11.3306 16.3647 11.2559 16.418C11.1813 16.4714 11.0918 16.5001 11 16.5001C10.9082 16.5001 10.8188 16.4714 10.7441 16.418C10.6694 16.3647 10.6133 16.2893 10.5837 16.2024L10.5496 15.9918C10.4224 15.2134 10.1294 14.4714 9.69031 13.8163C9.25122 13.1611 8.67636 12.608 8.00472 12.1946C7.06752 11.6171 5.92682 11.55 4.82572 11.55H0.0132263C0.300876 17.3695 5.10952 22 11 22Z" fill="#18181B"/>
<path d="M0 10.45H4.82569C5.92679 10.45 7.06749 10.3829 8.00469 9.80539C8.7373 9.354 9.354 8.7373 9.80539 8.00469C10.3829 7.06749 10.45 5.92679 10.45 4.82569V0H3.3C2.42478 0 1.58542 0.347677 0.966546 0.966546C0.347677 1.58542 0 2.42478 0 3.3V10.45Z" fill="#18181B"/>
<path d="M37.0413 18.74C36.1079 18.74 35.2413 18.5667 34.4413 18.22C33.6413 17.86 32.9613 17.3733 32.4013 16.76C31.8413 16.1467 31.4279 15.44 31.1613 14.64L33.1613 13.8C33.5213 14.72 34.0479 15.4267 34.7413 15.92C35.4346 16.4133 36.2346 16.66 37.1413 16.66C37.6746 16.66 38.1413 16.58 38.5413 16.42C38.9413 16.2467 39.2479 16.0067 39.4613 15.7C39.6879 15.3933 39.8013 15.04 39.8013 14.64C39.8013 14.0933 39.6479 13.66 39.3413 13.34C39.0346 13.02 38.5813 12.7667 37.9813 12.58L35.1813 11.7C34.0613 11.3533 33.2079 10.8267 32.6213 10.12C32.0346 9.4 31.7413 8.56 31.7413 7.6C31.7413 6.76 31.9479 6.02667 32.3613 5.4C32.7746 4.76 33.3413 4.26 34.0613 3.9C34.7946 3.54 35.6279 3.36 36.5613 3.36C37.4546 3.36 38.2679 3.52 39.0013 3.84C39.7346 4.14667 40.3613 4.57333 40.8813 5.12C41.4146 5.66667 41.8013 6.3 42.0412 7.02L40.0813 7.88C39.7879 7.09333 39.3279 6.48667 38.7013 6.06C38.0879 5.63333 37.3746 5.42 36.5613 5.42C36.0679 5.42 35.6346 5.50667 35.2613 5.68C34.8879 5.84 34.5946 6.08 34.3813 6.4C34.1813 6.70667 34.0813 7.06667 34.0813 7.48C34.0813 7.96 34.2346 8.38667 34.5413 8.76C34.8479 9.13333 35.3146 9.41333 35.9413 9.6L38.5413 10.42C39.7279 10.78 40.6213 11.3 41.2213 11.98C41.8213 12.6467 42.1213 13.48 42.1213 14.48C42.1213 15.3067 41.9013 16.04 41.4613 16.68C41.0346 17.32 40.4413 17.8267 39.6813 18.2C38.9213 18.56 38.0413 18.74 37.0413 18.74ZM44.5505 18.5V3.36H46.8105V13.5L45.9305 13.28L51.3505 7.68H54.1705L50.0905 12.02L54.3505 18.5H51.7505L47.9505 12.76L49.2905 12.58L46.0905 15.98L46.8105 14.48V18.5H44.5505ZM55.8981 18.5V7.68H58.1581V18.5H55.8981ZM55.8981 6.2V3.6H58.1581V6.2H55.8981ZM60.8005 18.5V3.36H63.0605V18.5H60.8005ZM65.7028 18.5V3.36H67.9628V18.5H65.7028ZM76.0452 18.74C75.1118 18.74 74.2452 18.5667 73.4452 18.22C72.6452 17.86 71.9652 17.3733 71.4052 16.76C70.8452 16.1467 70.4318 15.44 70.1652 14.64L72.1652 13.8C72.5252 14.72 73.0518 15.4267 73.7452 15.92C74.4385 16.4133 75.2385 16.66 76.1452 16.66C76.6785 16.66 77.1452 16.58 77.5452 16.42C77.9452 16.2467 78.2518 16.0067 78.4652 15.7C78.6918 15.3933 78.8052 15.04 78.8052 14.64C78.8052 14.0933 78.6518 13.66 78.3452 13.34C78.0385 13.02 77.5852 12.7667 76.9852 12.58L74.1852 11.7C73.0652 11.3533 72.2118 10.8267 71.6252 10.12C71.0385 9.4 70.7452 8.56 70.7452 7.6C70.7452 6.76 70.9518 6.02667 71.3652 5.4C71.7785 4.76 72.3452 4.26 73.0652 3.9C73.7985 3.54 74.6318 3.36 75.5652 3.36C76.4585 3.36 77.2718 3.52 78.0052 3.84C78.7385 4.14667 79.3652 4.57333 79.8852 5.12C80.4185 5.66667 80.8052 6.3 81.0452 7.02L79.0852 7.88C78.7918 7.09333 78.3318 6.48667 77.7052 6.06C77.0918 5.63333 76.3785 5.42 75.5652 5.42C75.0718 5.42 74.6385 5.50667 74.2652 5.68C73.8918 5.84 73.5985 6.08 73.3852 6.4C73.1852 6.70667 73.0852 7.06667 73.0852 7.48C73.0852 7.96 73.2385 8.38667 73.5452 8.76C73.8518 9.13333 74.3185 9.41333 74.9452 9.6L77.5452 10.42C78.7318 10.78 79.6252 11.3 80.2252 11.98C80.8252 12.6467 81.1252 13.48 81.1252 14.48C81.1252 15.3067 80.9052 16.04 80.4652 16.68C80.0385 17.32 79.4452 17.8267 78.6852 18.2C77.9252 18.56 77.0452 18.74 76.0452 18.74ZM85.9791 18.5L82.2591 7.68H84.6591L87.4991 16.3H86.6591L89.5591 7.68H91.6191L94.4991 16.3H93.6591L96.5191 7.68H98.9191L95.1791 18.5H93.1391L90.2191 9.68H90.9591L88.0391 18.5H85.9791ZM103.318 18.74C102.584 18.74 101.938 18.6133 101.378 18.36C100.831 18.0933 100.404 17.7333 100.098 17.28C99.7911 16.8133 99.6378 16.2667 99.6378 15.64C99.6378 15.0533 99.7645 14.5267 100.018 14.06C100.284 13.5933 100.691 13.2 101.238 12.88C101.784 12.56 102.471 12.3333 103.298 12.2L107.058 11.58V13.36L103.738 13.94C103.138 14.0467 102.698 14.24 102.418 14.52C102.138 14.7867 101.998 15.1333 101.998 15.56C101.998 15.9733 102.151 16.3133 102.458 16.58C102.778 16.8333 103.184 16.96 103.678 16.96C104.291 16.96 104.824 16.8267 105.278 16.56C105.744 16.2933 106.104 15.94 106.358 15.5C106.611 15.0467 106.738 14.5467 106.738 14V11.22C106.738 10.6867 106.538 10.2533 106.138 9.92C105.751 9.57333 105.231 9.4 104.578 9.4C103.978 9.4 103.451 9.56 102.998 9.88C102.558 10.1867 102.231 10.5867 102.018 11.08L100.138 10.14C100.338 9.60667 100.664 9.14 101.118 8.74C101.571 8.32667 102.098 8.00667 102.698 7.78C103.311 7.55333 103.958 7.44 104.638 7.44C105.491 7.44 106.244 7.6 106.898 7.92C107.564 8.24 108.078 8.68667 108.438 9.26C108.811 9.82 108.998 10.4733 108.998 11.22V18.5H106.838V16.54L107.298 16.6C107.044 17.04 106.718 17.42 106.318 17.74C105.931 18.06 105.484 18.3067 104.978 18.48C104.484 18.6533 103.931 18.74 103.318 18.74ZM111.64 22.5V7.68H113.8V9.92L113.54 9.4C113.94 8.78667 114.474 8.30667 115.14 7.96C115.807 7.61333 116.567 7.44 117.42 7.44C118.447 7.44 119.367 7.68667 120.18 8.18C121.007 8.67333 121.654 9.34667 122.12 10.2C122.6 11.0533 122.84 12.0133 122.84 13.08C122.84 14.1467 122.6 15.1067 122.12 15.96C121.654 16.8133 121.014 17.4933 120.2 18C119.387 18.4933 118.46 18.74 117.42 18.74C116.58 18.74 115.814 18.5667 115.12 18.22C114.44 17.8733 113.914 17.3733 113.54 16.72L113.9 16.3V22.5H111.64ZM117.2 16.64C117.84 16.64 118.407 16.4867 118.9 16.18C119.394 15.8733 119.78 15.4533 120.06 14.92C120.354 14.3733 120.5 13.76 120.5 13.08C120.5 12.4 120.354 11.7933 120.06 11.26C119.78 10.7267 119.394 10.3067 118.9 10C118.407 9.69333 117.84 9.54 117.2 9.54C116.574 9.54 116.007 9.69333 115.5 10C115.007 10.3067 114.614 10.7267 114.32 11.26C114.04 11.7933 113.9 12.4 113.9 13.08C113.9 13.76 114.04 14.3733 114.32 14.92C114.614 15.4533 115.007 15.8733 115.5 16.18C116.007 16.4867 116.574 16.64 117.2 16.64Z" fill="#18181B"/>
</g>
<defs>
<clipPath id="clip0_49_1150">
<rect width="124" height="22" fill="white"/>
</clipPath>
</defs>
</svg>
