<svg width="48" height="48" viewBox="0 0 48 48" fill="none" xmlns="http://www.w3.org/2000/svg">
<g clip-path="url(#clip0_214_292)">
<path d="M46 27.9502C45.74 28.4602 45.29 28.5902 44.76 28.6402C43.46 28.7602 42.17 28.9202 40.88 29.0602C40.71 29.0802 40.63 29.1302 40.57 29.2902C40.27 30.2102 39.9 31.1102 39.45 31.9802C39.34 32.1902 39.47 32.3002 39.57 32.4302C40.39 33.4602 41.22 34.4902 42.04 35.5202C42.58 36.2002 42.56 36.5702 41.93 37.2002C40.35 38.7802 38.77 40.3602 37.19 41.9402C36.56 42.5702 36.18 42.5902 35.48 42.0302C34.46 41.2202 33.44 40.4102 32.43 39.5802C32.23 39.4202 32.09 39.4002 31.87 39.5202C31.07 39.9402 30.24 40.2802 29.38 40.5502C29.16 40.6202 29.07 40.7302 29.05 40.9702C28.92 42.3102 28.77 43.6402 28.62 44.9802C28.53 45.7202 28.2 46.0002 27.46 46.0102C25.15 46.0102 22.85 46.0102 20.54 46.0102C19.8 46.0102 19.47 45.7202 19.38 44.9802C19.23 43.6402 19.08 42.3102 18.95 40.9702C18.93 40.7302 18.84 40.6202 18.62 40.5502C17.75 40.2702 16.9 39.9202 16.09 39.5002C15.9 39.4002 15.77 39.4202 15.6 39.5602C14.56 40.4102 13.5 41.2502 12.45 42.0802C11.81 42.5802 11.42 42.5602 10.84 41.9802C9.24 40.3802 7.64 38.7802 6.04 37.1802C5.45 36.5902 5.43 36.2002 5.96 35.5302C6.78 34.5002 7.6 33.4702 8.43 32.4502C8.59 32.2502 8.61 32.1102 8.49 31.8902C8.07 31.0902 7.73 30.2602 7.46 29.4002C7.39 29.1802 7.28 29.1002 7.04 29.0702C5.72 28.9402 4.4 28.7902 3.07 28.6402C2.29 28.5402 2 28.2102 2 27.4102C2 25.1302 2 22.8602 2 20.5802C2 19.7802 2.29 19.4602 3.07 19.3702C4.39 19.2202 5.71 19.0702 7.04 18.9402C7.28 18.9202 7.39 18.8302 7.46 18.6102C7.74 17.7402 8.09 16.8902 8.51 16.0802C8.61 15.8902 8.59 15.7602 8.45 15.5902C7.63 14.5802 6.82 13.5602 6 12.5402C5.4 11.7902 5.42 11.4302 6.09 10.7702C7.65 9.21024 9.21 7.65023 10.77 6.09023C11.44 5.42023 11.8 5.40023 12.54 6.00023C13.55 6.80023 14.56 7.60023 15.55 8.42023C15.75 8.58023 15.89 8.60023 16.11 8.48023C16.91 8.06023 17.74 7.72023 18.6 7.45023C18.82 7.38023 18.9 7.27023 18.93 7.03023C19.06 5.71023 19.22 4.39023 19.36 3.06023C19.41 2.58023 19.61 2.22023 20.03 1.99023H27.94C28.36 2.22023 28.57 2.58023 28.61 3.06023C28.75 4.38023 28.91 5.70023 29.04 7.03023C29.06 7.27023 29.14 7.38023 29.36 7.45023C30.23 7.73023 31.08 8.07023 31.89 8.50023C32.11 8.62023 32.24 8.56023 32.42 8.42023C33.44 7.59023 34.47 6.77023 35.5 5.95023C36.18 5.41023 36.55 5.43023 37.18 6.06023C38.76 7.64023 40.34 9.22023 41.92 10.8002C42.55 11.4302 42.57 11.8102 42.01 12.5102C41.19 13.5402 40.37 14.5702 39.54 15.6002C39.44 15.7302 39.35 15.8202 39.45 16.0102C39.9 16.8702 40.27 17.7702 40.57 18.7002C40.62 18.8602 40.7 18.9202 40.87 18.9402C42.16 19.0802 43.46 19.2302 44.75 19.3602C45.28 19.4102 45.73 19.5402 45.99 20.0502V27.9602L46 27.9502ZM36.29 40.2702C36.37 40.1702 36.43 40.0802 36.51 40.0002C37.66 38.8402 38.81 37.6802 39.98 36.5402C40.21 36.3202 40.23 36.1802 40.02 35.9302C39.23 34.9802 38.49 34.0002 37.7 33.0602C37.31 32.5902 37.26 32.1502 37.57 31.6102C38.17 30.5802 38.61 29.4802 38.95 28.3402C39.2 27.4902 39.4 27.3602 40.27 27.2702C41.45 27.1602 42.63 27.0002 43.81 26.8802C44.08 26.8502 44.16 26.7602 44.16 26.4802C44.15 24.8202 44.15 23.1602 44.16 21.5002C44.16 21.2502 44.09 21.1602 43.83 21.1302C42.61 21.0102 41.39 20.8502 40.16 20.7302C39.42 20.6502 39.16 20.4802 38.96 19.7802C38.62 18.5802 38.15 17.4302 37.53 16.3502C37.25 15.8602 37.29 15.4402 37.65 15.0102C38.46 14.0202 39.24 13.0202 40.04 12.0302C40.2 11.8302 40.22 11.7102 40.02 11.5102C38.83 10.3402 37.64 9.15023 36.47 7.95023C36.29 7.77023 36.18 7.76023 35.99 7.92023C35.01 8.72023 34.02 9.49023 33.05 10.2902C32.58 10.6802 32.14 10.7302 31.6 10.4202C30.56 9.81023 29.44 9.37023 28.29 9.03023C27.51 8.80023 27.35 8.57023 27.27 7.76023C27.15 6.56023 27 5.37023 26.88 4.18023C26.85 3.91023 26.76 3.82023 26.49 3.83023C24.83 3.84023 23.17 3.84023 21.51 3.83023C21.26 3.83023 21.17 3.89023 21.14 4.16023C21.02 5.38023 20.86 6.60023 20.74 7.83023C20.67 8.55023 20.49 8.83023 19.84 9.02023C18.62 9.36023 17.46 9.83023 16.37 10.4602C15.86 10.7502 15.44 10.6802 15 10.3202C14.04 9.53023 13.05 8.77023 12.09 7.98023C11.87 7.80023 11.74 7.76023 11.51 8.00023C10.36 9.18023 9.19 10.3402 8.02 11.5002C7.81 11.7002 7.8 11.8202 7.98 12.0502C8.75 12.9902 9.49 13.9602 10.27 14.8902C10.71 15.4102 10.77 15.8902 10.42 16.4902C9.82 17.5002 9.4 18.6002 9.07 19.7202C8.84 20.5002 8.61 20.6602 7.8 20.7402C6.6 20.8602 5.41 21.0202 4.22 21.1302C3.91 21.1602 3.86 21.2802 3.86 21.5602C3.87 23.1202 3.86 24.6802 3.86 26.2402C3.86 26.8702 3.86 26.8602 4.47 26.9202C5.62 27.0402 6.77 27.1702 7.93 27.2802C8.53 27.3402 8.9 27.6202 9.06 28.2102C9.37 29.4102 9.84 30.5402 10.46 31.6102C10.77 32.1502 10.71 32.5902 10.32 33.0602C9.54 34.0102 8.78 34.9802 8 35.9402C7.82 36.1602 7.78 36.2902 8.02 36.5202C9.2 37.6702 10.36 38.8402 11.52 40.0102C11.72 40.2202 11.84 40.2302 12.07 40.0502C13.03 39.2602 14.02 38.5002 14.98 37.7102C15.45 37.3202 15.89 37.2602 16.43 37.5802C17.47 38.1902 18.59 38.6302 19.74 38.9702C20.52 39.2002 20.68 39.4302 20.76 40.2402C20.88 41.4402 21.04 42.6302 21.15 43.8202C21.18 44.1302 21.31 44.1802 21.58 44.1802C23.14 44.1702 24.7 44.1802 26.26 44.1802C26.89 44.1802 26.88 44.1802 26.94 43.5702C27.06 42.4202 27.19 41.2702 27.3 40.1102C27.36 39.5102 27.64 39.1402 28.24 38.9802C29.42 38.6702 30.55 38.2102 31.6 37.6002C32.17 37.2702 32.63 37.3402 33.12 37.7502C34.05 38.5302 35.01 39.2802 35.97 40.0402C36.07 40.1202 36.17 40.1902 36.32 40.3002L36.29 40.2702Z" fill="#B1E346"/>
<path d="M31.3999 32.0301C34.7899 29.1501 36.3799 23.1901 33.2399 18.1201C30.2999 13.3701 23.6999 11.6301 18.7799 14.3501C13.3899 17.3301 11.8499 23.6101 13.8799 28.2101C13.9999 28.1001 14.1099 28.0101 14.2099 27.9001C15.9499 26.1601 17.6899 24.4201 19.4399 22.6801C20.1599 21.9601 20.6599 21.9901 21.2699 22.8001C21.8399 23.5501 22.4099 24.3101 22.9699 25.0701C23.1099 25.2601 23.1999 25.3501 23.4199 25.1301C24.9399 23.5901 26.4699 22.0701 27.9999 20.5401C28.0299 20.5101 28.0499 20.4701 28.0899 20.4101C27.8299 20.3001 27.5799 20.3601 27.3299 20.3501C26.6399 20.3501 25.9499 20.3301 25.2699 20.3501C24.9799 20.3501 24.8899 20.2601 24.9099 19.9801C24.9299 19.5101 24.7599 18.9001 24.9899 18.6001C25.2399 18.2901 25.8799 18.5101 26.3399 18.5101C27.6299 18.5001 28.9199 18.5101 30.2099 18.5101C30.9799 18.5101 31.3399 18.8301 31.3399 19.5801C31.3499 21.2601 31.3399 22.9301 31.3399 24.6101C31.3399 24.8801 31.2399 24.9601 30.9899 24.9501C30.5999 24.9301 30.2199 24.9301 29.8299 24.9501C29.5599 24.9601 29.4899 24.8701 29.4899 24.6101C29.4999 23.6701 29.4899 22.7201 29.4899 21.7501C29.2999 21.7801 29.2199 21.9201 29.1199 22.0301C27.3999 23.7501 25.6799 25.4701 23.9499 27.1901C23.2399 27.9001 22.7299 27.8501 22.1199 27.0401C21.5699 26.3101 21.0099 25.5801 20.4799 24.8401C20.2899 24.5701 20.1799 24.5301 19.9199 24.7901C18.1299 26.6001 16.3199 28.4001 14.5199 30.2001C14.4199 30.3001 14.3199 30.4101 14.2099 30.5001C13.6999 30.9101 13.0599 30.8001 12.7499 30.2301C11.6499 28.1901 11.0799 26.0201 11.1699 23.6901C11.2999 20.0301 12.7099 16.9501 15.4099 14.4901C17.3399 12.7301 19.6199 11.6201 22.2199 11.3201C27.2899 10.7301 31.4199 12.5001 34.4499 16.6101C36.1299 18.8801 36.8699 21.5001 36.8099 24.3401C36.6799 30.0401 32.7499 34.9901 27.3099 36.4001C23.2199 37.4601 19.4699 36.6601 16.0799 34.1301C15.8899 33.9901 15.8399 33.8901 16.0099 33.7001C16.3299 33.3401 16.5699 32.7701 16.9599 32.6301C17.3499 32.4901 17.6899 33.1101 18.1099 33.3001C18.2099 33.3501 18.2999 33.4101 18.4799 33.5101C18.4799 33.1901 18.4799 32.9301 18.4799 32.6701C18.4799 31.7401 18.4799 30.8101 18.4799 29.8801C18.4799 29.6101 18.5399 29.4901 18.8299 29.5101C19.1999 29.5401 19.5799 29.5301 19.9499 29.5101C20.2499 29.4901 20.3399 29.5901 20.3399 29.8901C20.3299 31.2501 20.3399 32.6101 20.3299 33.9701C20.3299 34.2801 20.4199 34.4401 20.7299 34.5001C21.1099 34.5801 21.4799 34.6601 21.8499 34.7801C22.1299 34.8701 22.1599 34.7501 22.1599 34.5201C22.1599 33.6201 22.1699 32.7201 22.1499 31.8101C22.1499 31.4501 22.2199 31.2801 22.6199 31.3201C22.9699 31.3601 23.3399 31.3401 23.6899 31.3201C23.9399 31.3101 23.9999 31.4001 23.9999 31.6401C23.9899 32.6301 23.9999 33.6201 23.9899 34.6001C23.9899 34.9401 24.0799 35.0201 24.3999 34.9701C24.7499 34.9101 25.1099 34.8801 25.4699 34.8701C25.7799 34.8701 25.8199 34.7101 25.8199 34.4401C25.8099 32.6501 25.8199 30.8601 25.7999 29.0701C25.7999 28.6401 25.9299 28.5201 26.3299 28.5601C26.6399 28.5901 26.9599 28.5901 27.2699 28.5601C27.5899 28.5301 27.6799 28.6501 27.6799 28.9701C27.6599 30.5701 27.6799 32.1801 27.6799 33.7801V34.3001C28.3199 34.1401 28.8599 33.8301 29.3999 33.5401C29.5799 33.4401 29.4999 33.2601 29.4999 33.1101C29.4999 31.1501 29.5099 29.1901 29.4999 27.2201C29.4999 26.8701 29.5499 26.6901 29.9599 26.7401C30.4099 26.8001 30.9999 26.5501 31.2799 26.8401C31.5399 27.1001 31.3499 27.6901 31.3499 28.1301C31.3499 29.2901 31.3499 30.4501 31.3499 31.6101C31.3499 31.7501 31.3099 31.9001 31.3999 32.0301Z" fill="#B1E346"/>
</g>
<defs>
<clipPath id="clip0_214_292">
<rect width="44" height="44" fill="white" transform="translate(2 2)"/>
</clipPath>
</defs>
</svg>
