<svg width="48" height="48" viewBox="0 0 48 48" fill="none" xmlns="http://www.w3.org/2000/svg">
<g clip-path="url(#clip0_214_301)">
<path d="M25.69 24.4798C25.69 28.6498 25.67 32.8098 25.69 36.9798C25.71 39.5198 26.82 41.5098 29.03 42.7798C32.98 45.0598 38.03 42.5998 38.73 38.0898C38.79 37.7098 38.8 37.3398 38.8 36.9598C38.8 33.1898 38.8 29.4098 38.8 25.6398C38.8 25.3198 38.71 25.1798 38.41 25.0398C37.32 24.5598 36.77 23.6998 36.75 22.4998C36.75 22.1598 36.91 21.7298 36.66 21.4998C36.43 21.2998 36.02 21.4398 35.68 21.4398C34.47 21.4198 33.8 20.7398 33.79 19.5298C33.79 19.0298 33.79 18.5398 33.79 18.0398C33.81 17.2998 34.24 16.6698 34.94 16.4598C35.26 16.3598 35.27 16.2598 35.16 15.9898C34.46 14.1598 33.78 12.3198 33.07 10.4898C32.9 10.0498 32.95 9.72984 33.24 9.36984C35.11 7.05984 36.96 4.72984 38.82 2.41984C39.28 1.84984 39.68 1.83984 40.13 2.40984C42 4.73984 43.86 7.06984 45.73 9.39984C46.01 9.74984 46.05 10.0698 45.89 10.4798C45.18 12.3098 44.5 14.1498 43.8 15.9798C43.7 16.2298 43.66 16.3598 44 16.4598C44.71 16.6698 45.15 17.2898 45.16 18.0298C45.17 18.6098 45.18 19.1998 45.16 19.7798C45.13 20.6398 44.5 21.3198 43.64 21.4098C43.28 21.4498 42.91 21.4398 42.55 21.4298C42.28 21.4298 42.2 21.5298 42.2 21.7898C42.2 22.2298 42.23 22.6698 42.15 23.0998C41.97 24.0098 41.43 24.6998 40.56 25.0398C40.21 25.1798 40.16 25.3598 40.16 25.6798C40.16 29.4698 40.2 33.2598 40.16 37.0398C40.12 40.0698 38.78 42.4298 36.15 43.9498C31.38 46.7198 25.32 43.7798 24.43 38.3198C24.34 37.7798 24.34 37.2498 24.34 36.7098C24.34 28.6498 24.34 20.5998 24.34 12.5398C24.34 9.82984 23.19 7.72984 20.77 6.47984C16.89 4.47984 11.88 6.47984 11.01 11.2398C10.95 11.5998 10.93 11.9598 10.92 12.3298C10.92 14.0098 10.92 15.6798 10.92 17.3598C10.92 17.5498 10.92 17.7098 11.15 17.8098C12.26 18.2798 12.76 19.1598 12.71 20.3298C12.69 20.7398 12.84 20.8898 13.2 21.0298C16.41 22.2698 18.48 25.2998 18.49 28.7498C18.49 31.3998 18.49 34.0498 18.49 36.7098C18.48 40.7898 15.6 44.1898 11.57 44.8898C6.98998 45.6898 2.54998 42.3198 2.04998 37.6798C1.99998 37.2598 1.97998 36.8398 1.97998 36.4198C1.97998 33.8998 1.97998 31.3798 1.97998 28.8598C1.97998 25.2898 4.08998 22.2298 7.42998 20.9798C7.73998 20.8698 7.76998 20.6998 7.76998 20.4298C7.72998 19.1998 8.19998 18.2798 9.36998 17.7998C9.58998 17.7098 9.56998 17.5498 9.56998 17.3798C9.56998 15.6798 9.54998 13.9698 9.56998 12.2698C9.60998 8.53984 12.07 5.46984 15.7 4.59984C19.7 3.63984 23.76 5.74984 25.18 9.55984C25.54 10.5298 25.67 11.5298 25.67 12.5598C25.66 16.5398 25.67 20.5198 25.67 24.4898L25.69 24.4798ZM10.25 29.4098C8.11998 29.4098 5.99998 29.4198 3.86998 29.4098C3.45998 29.4098 3.36998 29.5298 3.36998 29.9198C3.38998 32.1598 3.36998 34.4098 3.36998 36.6498C3.36998 37.0398 3.38998 37.4298 3.44998 37.8198C3.89998 40.9498 6.78998 43.9598 10.89 43.6098C14.57 43.2898 17.11 40.1698 17.12 36.8998C17.12 34.5398 17.12 32.1798 17.13 29.8198C17.13 29.4798 17.02 29.4098 16.71 29.4098C14.55 29.4198 12.4 29.4098 10.24 29.4098H10.25ZM40.27 4.74984C40.27 4.74984 40.21 4.76984 40.18 4.78984C40.18 5.33984 40.18 5.88984 40.18 6.43984C40.18 7.64984 40.18 8.85984 40.18 10.0598C40.18 10.6298 39.93 10.9298 39.48 10.9198C39.05 10.9198 38.81 10.6198 38.8 10.0798C38.8 9.98984 38.8 9.90984 38.8 9.81984C38.8 8.27984 38.8 6.72984 38.8 5.18984C38.8 5.04984 38.85 4.87984 38.72 4.72984C37.32 6.47984 35.94 8.20984 34.55 9.92984C34.44 10.0698 34.42 10.1798 34.48 10.3598C35.21 12.2598 35.92 14.1598 36.63 16.0598C36.71 16.2698 36.82 16.3498 37.04 16.3398C38.66 16.3398 40.27 16.3398 41.89 16.3398C42.13 16.3398 42.25 16.2598 42.33 16.0398C43.03 14.1498 43.75 12.2598 44.47 10.3798C44.54 10.1898 44.53 10.0698 44.4 9.90984C43.98 9.40984 43.58 8.88984 43.17 8.37984C42.2 7.16984 41.23 5.95984 40.26 4.73984L40.27 4.74984ZM10.26 28.0498C12.43 28.0498 14.6 28.0498 16.77 28.0498C16.91 28.0498 17.14 28.1498 17.09 27.8198C16.89 26.3898 16.41 25.0798 15.41 24.0098C13.81 22.2998 11.81 21.7198 9.51998 21.9198C6.40998 22.1798 3.87998 24.5698 3.44998 27.6598C3.39998 28.0198 3.48998 28.0598 3.79998 28.0598C5.94998 28.0498 8.10998 28.0598 10.26 28.0598V28.0498ZM39.48 20.0898C40.75 20.0898 42.01 20.0898 43.28 20.0898C43.66 20.0898 43.85 19.9298 43.85 19.5398C43.85 19.0898 43.85 18.6398 43.85 18.1898C43.85 17.8798 43.71 17.7098 43.37 17.7098C40.8 17.7098 38.22 17.7098 35.65 17.7098C35.29 17.7098 35.15 17.8898 35.15 18.2198C35.15 18.5998 35.15 18.9798 35.15 19.3498C35.15 19.9998 35.24 20.0898 35.87 20.0898C37.08 20.0898 38.28 20.0898 39.49 20.0898H39.48ZM39.5 21.4398C39.41 21.4398 39.33 21.4398 39.24 21.4398C38.87 21.4698 38.31 21.2698 38.17 21.5298C37.97 21.9198 38.04 22.4698 38.17 22.9298C38.42 23.8298 39.5 24.2098 40.27 23.6698C40.78 23.3098 40.89 22.7998 40.88 22.2198C40.87 21.4298 40.88 21.4298 40.11 21.4298C39.91 21.4298 39.7 21.4298 39.5 21.4298V21.4398ZM11.35 20.1698C11.34 19.4598 10.87 18.9698 10.25 18.9698C9.62998 18.9698 9.17998 19.4698 9.13998 20.1398C9.11998 20.4798 9.22998 20.5698 9.55998 20.5198C10.02 20.4498 10.49 20.4398 10.95 20.5198C11.28 20.5798 11.42 20.4598 11.35 20.1698Z" fill="#B1E346"/>
<path d="M9.58989 24.95C9.58989 24.67 9.57989 24.4 9.58989 24.12C9.60989 23.72 9.87989 23.44 10.2399 23.43C10.5999 23.42 10.8999 23.69 10.9199 24.08C10.9399 24.65 10.9399 25.22 10.9199 25.78C10.9099 26.18 10.6099 26.45 10.2499 26.45C9.88989 26.45 9.61989 26.17 9.58989 25.77C9.58989 25.74 9.58989 25.71 9.58989 25.68C9.58989 25.43 9.58989 25.18 9.58989 24.94V24.95Z" fill="#B1E346"/>
</g>
<defs>
<clipPath id="clip0_214_301">
<rect width="44" height="43.02" fill="white" transform="translate(2 2)"/>
</clipPath>
</defs>
</svg>
