<svg width="48" height="48" viewBox="0 0 48 48" fill="none" xmlns="http://www.w3.org/2000/svg">
<path d="M25.6573 18.4399C25.6761 18.8347 25.5069 19.1073 25.2344 19.4268C24.6234 20.16 24.2475 21.0529 23.7587 21.8706C23.5426 22.2277 23.364 22.6131 23.1384 22.9703C22.9786 23.224 22.7906 23.4684 22.4805 23.5906" stroke="#B1E346" stroke-width="2" stroke-linecap="round" stroke-linejoin="round"/>
<path d="M37.5092 21.9556C35.8174 21.9556 34.1349 21.965 32.4431 21.9556C32.0954 21.9556 31.8604 22.0778 31.6912 22.3597C31.2682 23.074 30.8265 23.7884 30.4223 24.5215C30.2343 24.8599 29.9806 25.1324 29.6704 25.358" stroke="#B1E346" stroke-width="2" stroke-linecap="round" stroke-linejoin="round"/>
<path d="M8.95515 14.6147C8.83296 14.5865 8.77657 14.6429 8.72957 14.7462C7.98705 16.3535 7.5547 18.0171 7.5265 19.8029C7.49831 22.0587 8.00585 24.1452 9.12433 26.0908C9.75406 27.1905 10.5906 28.121 11.5023 28.9951C11.7748 29.2583 12.0568 29.5309 12.2918 29.8316C12.602 30.2452 12.5362 30.4144 12.038 30.6211C11.3989 30.8843 10.7128 30.8655 10.0548 31.0159C9.49089 31.1381 8.90815 31.1851 8.33482 31.2321" stroke="#B1E346" stroke-width="2" stroke-linecap="round" stroke-linejoin="round"/>
<path d="M8.34424 41.3452C9.18075 41.317 9.94207 41.6272 10.7222 41.8434C13.3821 42.5577 16.0326 43.3096 18.7019 43.9957C19.6512 44.2401 20.5817 44.5315 21.5216 44.7853C23.1853 45.227 24.8113 44.9826 26.4091 44.4751C30.4507 43.1968 34.4922 41.8998 38.5244 40.6027C39.2293 40.3771 39.8779 40.0576 40.3384 39.4184C41.2219 38.1872 40.705 36.6927 39.0602 36.4202C38.4492 36.3262 37.8759 36.4672 37.2931 36.5987C35.9115 36.8901 34.5392 37.1721 33.1482 37.4259C32.8756 37.4728 32.5842 37.4634 32.3117 37.3507C32.0861 37.2567 31.8793 37.2661 31.6443 37.4259C30.7044 38.0556 29.5954 38.1214 28.5239 38.3094C27.6216 38.4691 26.7569 38.2436 25.8828 38.0932C24.2849 37.8018 22.6777 37.5104 21.0799 37.2097C20.4125 37.0875 19.8392 36.5236 19.811 35.7152C19.7828 35.0009 20.3562 34.2772 21.0423 34.1832C21.4652 34.1268 21.8976 34.2678 22.3205 34.3054C23.627 34.4182 24.9241 34.6907 26.2399 34.7095C27.1234 34.7189 27.8753 34.4088 28.3923 33.6945C28.881 33.0271 28.8434 32.1154 28.2231 31.3259C27.6592 30.6022 26.8791 30.2074 25.9768 30.0476C24.8583 29.8409 23.7492 29.6153 22.6307 29.4367C21.3712 29.2393 20.093 29.3145 18.8429 29.5307C17.0383 29.8409 15.2337 30.1792 13.4197 30.4612C13.0813 30.5082 12.7994 30.3954 12.4892 30.3672" stroke="#B1E346" stroke-width="2" stroke-linecap="round" stroke-linejoin="round"/>
<path d="M20.3281 20.3296C20.3469 20.5082 20.3563 20.6774 20.3751 20.8559C20.3751 20.9687 20.3375 21.0815 20.4597 21.1661C21.0894 21.5703 21.3338 22.2564 21.738 22.8391C21.832 22.9801 21.9166 23.1493 22.0481 23.2245C22.5651 23.5158 22.5275 23.9858 22.4805 24.4651" stroke="#B1E346" stroke-width="2" stroke-linecap="round" stroke-linejoin="round"/>
<path d="M20.3753 21.1187C19.6986 21.4476 19.4354 22.1243 19.1253 22.7165C18.7869 23.3462 18.4016 23.5906 17.6872 23.553C16.6063 23.4966 15.5161 23.5342 14.4258 23.5342" stroke="#B1E346" stroke-width="2" stroke-linecap="round" stroke-linejoin="round"/>
<path d="M41.382 9.16308C40.4233 9.09728 39.474 9.10668 38.5153 9.16308C38.0641 9.19127 37.6036 9.13488 37.1524 9.12548C36.7013 9.12548 36.2407 9.13488 35.7896 9.14428" stroke="#B1E346" stroke-width="2" stroke-linecap="round" stroke-linejoin="round"/>
<path d="M38.6094 6.39062C38.6752 7.35872 38.6658 8.32682 38.6094 9.29491C38.5812 9.76486 38.6376 10.2348 38.647 10.7048C38.647 11.1277 38.6376 11.5507 38.6282 11.983" stroke="#B1E346" stroke-width="2" stroke-linecap="round" stroke-linejoin="round"/>
<path d="M25.6572 19.0981C26.1648 19.4083 26.3903 19.9441 26.6629 20.4234C27.4054 21.7487 28.1104 23.0927 28.8341 24.418C28.9563 24.6342 29.0879 24.8785 29.2758 25.0289C29.6236 25.2921 29.6518 25.6304 29.6236 26.0064" stroke="#B1E346" stroke-width="2" stroke-linecap="round" stroke-linejoin="round"/>
<path d="M31.2965 10.0844C30.0934 10.3476 29.0783 10.9773 28.082 11.6634C27.3207 12.1898 26.7192 12.8853 26.0143 13.468C25.5913 13.8158 25.4409 13.8252 25.0462 13.468C24.1439 12.6503 23.2886 11.7668 22.2265 11.1371C20.7414 10.263 19.1718 9.68024 17.4236 9.53925C15.3088 9.36067 13.4102 9.87762 11.6996 11.0995C11.4176 11.2969 11.1732 11.5506 10.9007 11.748C10.6375 11.9454 10.5529 12.1898 10.5905 12.4999" stroke="#B1E346" stroke-width="2" stroke-linecap="round" stroke-linejoin="round"/>
<path d="M8.29733 31.2324C8.21274 31.1008 8.16574 30.9504 8.11875 30.7906C7.95896 30.2737 7.86497 30.2173 7.28223 30.2173C5.78779 30.2173 4.28396 30.2173 2.78952 30.2173C2.14098 30.2173 2 30.3677 2 31.0068C2 34.522 2 38.0466 2 41.5619C2 42.1446 2.30077 42.3702 2.79891 42.3608C4.29335 42.342 5.79719 42.3608 7.29163 42.3608C7.95896 42.3608 8.40071 41.7311 8.17514 41.0825C8.10935 40.8945 8.09055 40.7066 8.09055 40.5092C8.09055 37.6989 8.09055 34.8792 8.09055 32.0689C8.09055 31.7869 8.15634 31.5331 8.26913 31.2794" stroke="#B1E346" stroke-width="2" stroke-linecap="round" stroke-linejoin="round"/>
<path d="M42.5753 15.4043C43.1675 16.692 43.4306 18.036 43.5152 19.4459C43.628 21.5606 43.2145 23.5438 42.2746 25.433C41.72 26.5515 40.9775 27.529 40.1128 28.4219C37.5563 31.0348 34.9997 33.6383 32.4432 36.2513C32.18 36.5238 32.0203 36.8434 32.0015 37.2194" stroke="#B1E346" stroke-width="2" stroke-linecap="round" stroke-linejoin="round"/>
<path d="M32.1521 5.50701C32.2931 5.96756 32.0017 6.34352 31.8607 6.73827C31.5787 7.53719 31.4377 8.3549 31.4189 9.20081C31.4189 9.43579 31.4189 9.67076 31.3626 9.90574C31.3438 9.99973 31.3062 10.1125 31.3344 10.1689C31.7385 10.8738 31.8137 11.7103 32.2085 12.4153C33.4491 14.6616 35.3383 15.9587 37.8949 16.2877C39.1073 16.438 40.254 16.1937 41.3725 15.7613C41.7108 15.6297 42.0304 15.4417 42.3876 15.3666C42.4252 15.3666 42.5004 15.3853 42.5192 15.3666C43.5437 14.2857 44.7279 13.327 45.2543 11.8513C45.4516 11.3062 45.6396 10.761 45.696 10.1783C45.7242 9.88694 45.7712 9.60497 45.9122 9.3418C45.9498 9.276 46.0156 9.16322 45.9968 9.12562C45.6678 8.64627 45.743 8.06353 45.602 7.53719C44.8407 4.52951 42.4534 2.39594 39.3893 2.04818C37.4813 1.832 35.7707 2.34894 34.2292 3.48622C34.0225 3.64601 34.1541 3.81519 34.0977 3.97497" stroke="#B1E346" stroke-width="2" stroke-linecap="round" stroke-linejoin="round"/>
</svg>
