<svg width="48" height="48" viewBox="0 0 48 48" fill="none" xmlns="http://www.w3.org/2000/svg">
<g clip-path="url(#clip0_214_280)">
<path d="M7.56995 35.89C7.12995 36.34 6.77995 36.73 6.39995 37.1C5.88995 37.6 5.28995 37.82 4.56995 37.68C3.73995 37.52 3.30995 36.93 3.07995 36.18C2.85995 35.47 3.07995 34.87 3.59995 34.36C4.84995 33.12 6.08995 31.86 7.34995 30.62C7.53995 30.44 7.61995 30.25 7.61995 29.98C7.60995 28.84 7.60995 27.7 7.61995 26.56C7.61995 26.32 7.55995 26.14 7.37995 25.96C6.62995 25.23 6.60995 24.17 7.32995 23.39C7.54995 23.16 7.61995 22.93 7.61995 22.62C7.61995 16.93 7.61995 11.24 7.61995 5.56C7.61995 4.07 8.21995 2.95 9.58995 2.29C10.0699 2.06 10.5999 2 11.1299 2C18.7599 2 26.3999 2 34.0299 2C36.1399 2 37.4999 3.4 37.5099 5.49C37.5099 6.07 37.5199 6.65 37.5099 7.22C37.5099 7.5 37.6099 7.58 37.8699 7.61C39.4399 7.81 40.9999 8.02 42.5599 8.24C44.5799 8.52 45.7999 10.16 45.5199 12.16C45.0799 15.3 44.6799 18.45 44.2599 21.59C43.8799 24.43 43.4899 27.28 43.1099 30.12C42.7599 32.74 42.4199 35.36 42.0699 37.98C41.8399 39.73 41.6199 41.47 41.3499 43.21C41.0699 45.03 39.4399 46.2 37.6299 45.96C33.8499 45.45 30.0699 44.97 26.2999 44.46C23.4699 44.08 20.6399 43.69 17.8199 43.31C16.6599 43.15 15.4999 43 14.3499 42.84C14.1899 42.82 13.9999 42.8 13.8699 42.71C13.1999 42.2 12.4399 42.31 11.6799 42.3C11.0599 42.3 10.8899 42.13 10.8899 41.52C10.8899 41.14 10.8799 40.76 10.8899 40.38C10.8899 40.13 10.8499 40.03 10.5599 39.98C8.97995 39.72 7.97995 38.86 7.71995 37.54C7.61995 37.04 7.62995 36.53 7.57995 35.89H7.56995ZM20.7099 27.42C21.1699 28 21.3599 28.58 21.1699 29.2C21.0399 29.6 21.1999 29.6 21.5099 29.6C24.6899 29.6 27.8699 29.6 31.0499 29.6C31.1899 29.6 31.3199 29.6 31.4599 29.6C31.7599 29.63 31.9299 29.82 31.9499 30.11C31.9699 30.41 31.7999 30.6 31.5199 30.67C31.3799 30.71 31.2199 30.69 31.0699 30.69C27.5699 30.69 24.0699 30.69 20.5799 30.69C20.2199 30.69 19.9599 30.77 19.6999 31.04C18.9299 31.84 18.1399 32.62 17.3499 33.4C16.7799 33.95 15.9699 34.06 15.2799 33.73C14.6099 33.4 14.1099 32.64 14.2899 31.95C14.4499 31.37 14.2099 31.08 13.8399 30.77C13.7399 30.68 13.6299 30.59 13.5499 30.48C13.3699 30.24 13.2299 30.26 13.0199 30.48C12.0399 31.48 11.0499 32.46 10.0599 33.45C9.11995 34.39 8.68328 35.52 8.74995 36.84C8.80995 37.95 9.32995 38.55 10.3899 38.84C10.8099 38.95 10.9099 38.87 10.8899 38.44C10.8599 37.79 11.0399 37.63 11.6799 37.63C11.8799 37.63 12.0799 37.63 12.2699 37.63C12.9033 37.63 13.2233 37.3167 13.2299 36.69C13.2399 35.43 14.1199 34.54 15.3799 34.53C18.4499 34.53 21.5199 34.53 24.5999 34.53C25.2299 34.53 25.7699 34.73 26.1899 35.2C26.3599 35.39 26.5299 35.45 26.7799 35.45C28.2599 35.45 29.7299 35.45 31.2099 35.45C31.6999 35.45 31.9499 35.64 31.9499 35.99C31.9499 36.35 31.6999 36.54 31.2199 36.54C29.9399 36.54 28.6599 36.54 27.3899 36.54C26.6999 36.54 26.7799 36.42 26.7699 37.18C26.7699 37.23 26.7699 37.27 26.7699 37.32C26.7399 37.56 26.8599 37.64 27.0899 37.63C27.4699 37.62 27.8499 37.63 28.2299 37.63C29.0099 37.63 29.1299 37.74 29.1099 38.53C29.1099 38.87 29.1999 38.97 29.5399 38.96C30.9999 38.94 32.4599 38.96 33.9199 38.96C35.5699 38.96 36.4199 38.1 36.4199 36.46C36.4199 26.18 36.4099 15.9 36.4399 5.62C36.4399 4.31 35.6099 3.11 33.9699 3.12C26.3799 3.15 18.7899 3.15 11.1999 3.12C9.73995 3.12 8.71995 4.12 8.72995 5.57C8.76995 10.86 8.73995 16.15 8.74995 21.45C8.74995 21.59 8.69995 21.75 8.84995 21.93C9.17995 21.59 9.49995 21.26 9.81995 20.94C10.1399 20.62 10.4599 20.29 10.7899 19.98C11.4099 19.42 12.2399 19.35 12.9399 19.78C13.6099 20.19 13.9499 20.98 13.7499 21.75C13.6699 22.03 13.7299 22.19 13.9299 22.38C15.1599 23.6 16.3899 24.82 17.6099 26.06C17.8199 26.27 18.0299 26.35 18.3299 26.35C22.5699 26.35 26.8199 26.35 31.0599 26.35C31.2099 26.35 31.3699 26.33 31.5099 26.37C31.8099 26.44 31.9899 26.64 31.9599 26.96C31.9299 27.25 31.7499 27.42 31.4499 27.44C31.3099 27.44 31.1799 27.44 31.0399 27.44C28.2599 27.44 25.4699 27.44 22.6899 27.44H20.7299L20.7099 27.42ZM19.0799 42.3C19.0799 42.3 19.0599 42.33 19.0599 42.35C19.6599 42.43 20.2599 42.52 20.8499 42.6C22.9999 42.89 25.1499 43.18 27.2999 43.46C29.2499 43.72 31.2099 43.98 33.1599 44.24C34.7399 44.45 36.3199 44.67 37.8999 44.85C39.0999 44.98 40.0799 44.2 40.2499 43.01C40.3999 42.02 40.5299 41.03 40.6599 40.04C40.9199 38.12 41.1699 36.19 41.4299 34.27C41.6899 32.33 41.9399 30.39 42.1999 28.45C42.4599 26.5 42.7199 24.54 42.9799 22.59C43.2399 20.65 43.4999 18.71 43.7599 16.77C43.9899 15.09 44.2399 13.41 44.4299 11.72C44.5699 10.52 43.6799 9.5 42.4699 9.35C41.0299 9.17 39.5799 8.98 38.1399 8.78C37.5199 8.7 37.5299 8.68 37.5299 9.3C37.5299 18.44 37.5299 27.57 37.5299 36.71C37.5299 38.16 36.8299 39.19 35.5199 39.8C34.9999 40.04 34.4299 40.07 33.8699 40.07C32.4299 40.07 30.9799 40.07 29.5399 40.07C29.2199 40.07 29.1099 40.17 29.1299 40.48C29.1499 40.8 29.1299 41.12 29.1299 41.44C29.1299 42.18 28.9999 42.31 28.2499 42.31C25.1899 42.31 22.1399 42.31 19.0799 42.31V42.3ZM19.9999 41.19C22.5399 41.19 25.0799 41.19 27.6099 41.19C27.9199 41.19 28.0399 41.12 28.0199 40.79C27.9899 40.23 27.9999 39.67 28.0199 39.1C28.0299 38.81 27.9499 38.7 27.6399 38.71C26.9399 38.73 26.2399 38.71 25.5399 38.71C21.1799 38.71 16.8199 38.71 12.4499 38.71C12.0799 38.71 11.9399 38.79 11.9599 39.18C11.9899 39.69 11.9899 40.21 11.9599 40.73C11.9399 41.09 12.0499 41.19 12.4099 41.19C14.9299 41.17 17.4599 41.19 19.9799 41.19H19.9999ZM17.6999 27.78C17.6399 27.71 17.5799 27.63 17.5199 27.57C16.0599 26.11 14.5999 24.65 13.1399 23.18C12.9599 23 12.8699 23.02 12.7099 23.18C11.9999 23.91 11.2799 24.63 10.5499 25.34C10.3799 25.51 10.3399 25.62 10.5299 25.81C11.9899 27.25 13.4399 28.7 14.8799 30.16C15.0699 30.35 15.1699 30.33 15.3499 30.16C16.0599 29.43 16.7799 28.72 17.4999 28C17.5599 27.94 17.6199 27.86 17.6899 27.78H17.6999ZM19.9599 37.61C21.5599 37.61 23.1499 37.61 24.7499 37.61C25.3766 37.61 25.6799 37.2967 25.6599 36.67C25.6399 36.04 25.2699 35.63 24.6399 35.63C21.5399 35.63 18.4399 35.63 15.3399 35.63C14.7399 35.63 14.3599 36.05 14.3399 36.65C14.3399 36.83 14.3599 37.02 14.3399 37.2C14.2899 37.55 14.4399 37.63 14.7699 37.63C16.4999 37.61 18.2299 37.63 19.9699 37.63L19.9599 37.61ZM4.95995 36.52C5.28995 36.55 5.49995 36.35 5.70995 36.14C7.66995 34.17 9.63995 32.21 11.5999 30.24C11.8699 29.97 12.3299 29.74 12.3299 29.41C12.3299 29.08 11.8499 28.87 11.6099 28.58C11.3999 28.31 11.2499 28.29 10.9799 28.56C8.89995 30.67 6.79995 32.76 4.69995 34.85C4.57995 34.97 4.45995 35.09 4.34995 35.21C4.12995 35.45 4.07995 35.7 4.23995 36C4.39995 36.3 4.56995 36.55 4.95995 36.51V36.52ZM20.0599 28.73C20.0799 28.42 19.9099 28.23 19.6599 28.12C19.3499 27.99 19.0999 28.12 18.8799 28.33C17.8199 29.39 16.7499 30.45 15.6899 31.52C15.3699 31.85 15.3299 32.26 15.5899 32.54C15.8799 32.85 16.2599 32.84 16.6299 32.47C17.6999 31.41 18.7599 30.34 19.8199 29.28C19.9699 29.13 20.0999 28.95 20.0599 28.73ZM8.62995 25.29C8.87995 25.32 9.04995 25.18 9.20995 25.01C10.2499 23.97 11.2999 22.93 12.3299 21.88C12.7199 21.49 12.7399 21.11 12.4199 20.81C12.1399 20.55 11.7299 20.6 11.3799 20.95C10.6999 21.62 10.0299 22.3 9.34995 22.98C8.94995 23.38 8.54995 23.77 8.15995 24.18C7.94995 24.4 7.90995 24.66 8.03995 24.93C8.14995 25.17 8.34995 25.3 8.62995 25.28V25.29ZM8.73995 29.08C8.73995 29.08 8.81995 29.12 8.85995 29.13C9.35995 28.62 9.84995 28.11 10.3499 27.61C10.4699 27.49 10.5099 27.42 10.3699 27.28C10.0699 27 9.78995 26.7 9.49995 26.42C9.29995 26.22 9.10995 26.44 8.90995 26.45C8.75995 26.45 8.73995 26.6 8.73995 26.73C8.73995 27.52 8.73995 28.3 8.73995 29.09V29.08Z" fill="#B1E346"/>
<path d="M31.3997 9.85984C31.3597 12.9598 30.9998 15.8398 29.6898 18.5198C28.2198 21.5198 25.8197 23.5298 22.8897 24.9998C22.6497 25.1198 22.4298 25.0898 22.1898 24.9698C17.7798 22.7998 15.0298 19.3698 14.1398 14.4898C13.7098 12.1498 13.6998 9.80984 13.8698 7.44984C13.8998 6.99984 14.1798 6.85984 14.5698 6.83984C15.7298 6.78984 16.8698 6.62984 17.9798 6.30984C19.4498 5.88984 20.8198 5.22984 22.0298 4.29984C22.4298 3.98984 22.7298 4.01984 23.1198 4.30984C25.1798 5.85984 27.5298 6.64984 30.0898 6.80984C31.2098 6.87984 31.2697 6.91984 31.3097 8.06984C31.3297 8.71984 31.3697 9.37984 31.3897 9.85984H31.3997ZM30.2898 9.98984C30.2698 9.56984 30.2197 8.91984 30.2197 8.26984C30.2197 7.97984 30.1098 7.91984 29.8398 7.90984C27.3398 7.72984 25.0297 6.97984 22.9597 5.55984C22.6797 5.36984 22.4997 5.34984 22.2097 5.55984C20.2197 6.93984 17.9898 7.65984 15.5998 7.90984C14.9398 7.97984 14.9298 7.96984 14.9098 8.64984C14.8698 10.3798 14.8898 12.1098 15.1598 13.8298C15.8598 18.3698 18.1997 21.7098 22.3097 23.7898C22.4897 23.8798 22.6297 23.9098 22.8197 23.8098C25.3397 22.4998 27.3898 20.7298 28.6698 18.1498C29.9098 15.6598 30.2398 12.9798 30.2898 10.0098V9.98984Z" fill="#B1E346"/>
<path d="M28.3298 32.8701C29.2898 32.8701 30.2398 32.8701 31.1998 32.8701C31.6998 32.8701 31.9398 33.0601 31.9398 33.4101C31.9398 33.7601 31.6798 33.9701 31.2098 33.9701C29.2698 33.9701 27.3198 33.9701 25.3798 33.9701C24.9198 33.9701 24.6198 33.7301 24.6598 33.4001C24.6998 32.9801 24.9898 32.8701 25.3698 32.8701C26.3598 32.8701 27.3398 32.8701 28.3298 32.8701Z" fill="#B1E346"/>
<path d="M29.0297 11.3C29.0697 13.7 28.6997 16.02 27.4797 18.13C26.3997 20 24.7697 21.25 22.8697 22.21C22.6297 22.33 22.4097 22.28 22.1797 22.16C18.8897 20.55 16.9197 17.96 16.3197 14.33C16.0497 12.71 16.0097 11.1 16.1497 9.47004C16.1797 9.10004 16.3697 8.89004 16.7497 8.87004C17.7697 8.80004 18.7697 8.67004 19.7397 8.32004C20.5697 8.02004 21.3597 7.62004 22.0497 7.07004C22.3997 6.79004 22.7097 6.80004 23.0697 7.07004C24.4797 8.13004 26.0697 8.69004 27.8297 8.80004C28.9097 8.87004 28.9897 8.96004 29.0197 10.06C29.0197 10.47 29.0197 10.88 29.0197 11.29L29.0297 11.3ZM17.2597 11.64C17.2597 12.49 17.2997 13.34 17.4397 14.18C17.9497 17.21 19.5297 19.47 22.2497 20.92C22.4497 21.03 22.6197 21.06 22.8397 20.94C24.8397 19.87 26.3497 18.35 27.1497 16.2C27.8597 14.29 27.9697 12.29 27.8997 10.28C27.8997 10.02 27.7597 9.95004 27.5297 9.93004C25.8197 9.79004 24.2397 9.25004 22.8197 8.29004C22.6497 8.17004 22.5097 8.16004 22.3297 8.29004C20.8897 9.26004 19.2997 9.80004 17.5697 9.94004C17.3497 9.96004 17.2497 10.06 17.2497 10.28C17.2497 10.74 17.2497 11.19 17.2497 11.65L17.2597 11.64Z" fill="#B1E346"/>
<path d="M25.8701 12.8101C25.8901 13.0201 25.7701 13.1701 25.6301 13.3201C24.5201 14.4301 23.4201 15.5401 22.3101 16.6301C21.9601 16.9701 21.6801 16.9701 21.3301 16.6301C20.7201 16.0401 20.1201 15.4301 19.5201 14.8301C19.1801 14.4901 19.1601 14.1801 19.4401 13.9201C19.7201 13.6601 20.0001 13.6901 20.3501 14.0301C20.7601 14.4301 21.1801 14.8301 21.5701 15.2601C21.7601 15.4701 21.8701 15.4601 22.0701 15.2601C22.9801 14.3301 23.9101 13.4101 24.8301 12.4901C25.0301 12.2901 25.2601 12.2001 25.5301 12.3101C25.7401 12.4001 25.8601 12.5701 25.8601 12.8201L25.8701 12.8101Z" fill="#B1E346"/>
</g>
<defs>
<clipPath id="clip0_214_280">
<rect width="42.56" height="44" fill="white" transform="translate(3 2)"/>
</clipPath>
</defs>
</svg>
