<svg width="48" height="48" viewBox="0 0 48 48" fill="none" xmlns="http://www.w3.org/2000/svg">
<path d="M2 41.2198C2.24 40.1298 2.9 39.2598 3.48 38.3498C6.54 33.5798 9.6 28.8198 12.67 24.0498C12.83 23.7998 12.92 23.5498 12.91 23.2498C12.89 22.6498 12.9 22.0498 12.91 21.4498C12.91 21.0098 13.15 20.7298 13.52 20.7098C13.9 20.6898 14.19 20.9898 14.19 21.4398C14.2 22.2298 14.19 23.0098 14.19 23.7998C14.19 24.0798 14.04 24.2898 13.9 24.4998C10.55 29.7098 7.21 34.9298 3.86 40.1298C3.16 41.2098 3.08 42.2898 3.79 43.3798C4.26 44.0898 4.93 44.4798 5.78 44.5698C5.94 44.5898 6.09 44.5898 6.25 44.5898C14.22 44.5898 22.2 44.5898 30.17 44.5898C31.75 44.5898 32.81 43.7898 33.13 42.3798C33.31 41.5598 33.09 40.8298 32.64 40.1398C31.2 37.9098 29.76 35.6598 28.32 33.4298C27.66 32.4098 27.01 31.3798 26.35 30.3598C26.2 30.1198 26.08 29.8898 26.22 29.5998C26.44 29.1398 27.03 29.0898 27.34 29.5298C27.66 29.9898 27.96 30.4598 28.25 30.9398C28.4 31.1898 28.52 31.2298 28.78 31.0898C29.82 30.5498 30.86 30.0198 32.03 29.7698C33.92 29.3598 35.76 29.5098 37.54 30.2698C38.98 30.8898 40.45 31.1798 42.01 30.9698C42.81 30.8698 43.34 31.3698 43.39 32.2498C43.49 34.0298 43.17 35.7198 42.41 37.3398C42.06 38.0998 41.62 38.7998 41.09 39.4398C40.78 39.8198 40.39 39.8998 40.09 39.6498C39.79 39.4098 39.78 39.0198 40.09 38.6298C41.46 36.8898 42.13 34.9198 42.11 32.6998C42.11 32.3798 42.05 32.2498 41.68 32.2898C40.2 32.4498 38.76 32.2198 37.41 31.5998C34.61 30.3298 31.95 30.7498 29.37 32.2198C29.12 32.3598 29.23 32.4798 29.33 32.6198C30 33.6698 30.68 34.7098 31.35 35.7598C32.14 36.9898 32.92 38.2198 33.72 39.4398C34.16 40.1098 34.46 40.8298 34.48 41.6398C34.48 41.8598 34.55 41.8998 34.76 41.8498C35.81 41.6298 36.79 41.2598 37.7 40.6998C37.82 40.6298 37.94 40.5398 38.07 40.4798C38.42 40.2898 38.78 40.3698 38.97 40.6798C39.15 40.9798 39.07 41.3498 38.74 41.5698C37.84 42.1698 36.87 42.6098 35.83 42.9098C35.72 42.9398 35.61 42.9998 35.5 42.9998C34.44 42.9798 33.89 43.6298 33.53 44.5598C34.26 44.5898 34.98 44.4498 35.7 44.2798C41.37 42.9598 45.28 37.5198 44.61 31.7198C44.07 27.0198 41.52 23.7698 37.14 21.9498C36.69 21.7698 36.5 21.5198 36.49 21.0198C36.47 19.3998 36.46 17.7898 37.08 16.1898C36.66 16.1898 36.33 16.1898 36 16.1898C33.78 16.1898 31.56 16.1898 29.34 16.1898C28.97 16.1898 28.9 16.2798 29.02 16.6198C29.52 18.0798 29.49 19.5998 29.47 21.1198C29.47 21.5898 29.2 21.7998 28.8 21.9498C27.21 22.5498 25.83 23.4698 24.63 24.6698C24.45 24.8498 24.41 24.9798 24.57 25.1998C24.99 25.8098 25.38 26.4498 25.78 27.0798C26.05 27.4998 25.99 27.8798 25.64 28.0898C25.32 28.2798 24.95 28.1698 24.7 27.7698C23.95 26.6198 23.22 25.4598 22.47 24.3098C22.32 24.0798 22.3 23.8298 22.3 23.5698C22.3 21.3398 22.3 19.0998 22.3 16.8698C22.3 16.4998 22.24 16.3598 21.82 16.3598C19.43 16.3798 17.04 16.3798 14.65 16.3598C14.29 16.3598 14.14 16.4198 14.17 16.8198C14.21 17.3598 14.19 17.9098 14.17 18.4498C14.17 18.9498 13.91 19.2198 13.49 19.2098C13.09 19.1998 12.88 18.9398 12.88 18.4398C12.88 17.7798 12.88 17.1198 12.88 16.4598C12.88 16.2698 12.82 16.1498 12.66 16.0398C11.93 15.4898 11.67 14.7198 11.93 13.9298C12.19 13.1398 12.85 12.6498 13.76 12.6398C16.72 12.6298 19.69 12.6298 22.65 12.6398C23.58 12.6398 24.26 13.1298 24.52 13.9398C24.77 14.7298 24.52 15.4798 23.77 16.0498C23.63 16.1598 23.57 16.2698 23.57 16.4398C23.57 18.7698 23.57 21.1098 23.57 23.4398C23.57 23.5398 23.55 23.6698 23.64 23.7198C23.75 23.7798 23.81 23.6498 23.88 23.5898C25.05 22.4498 26.38 21.5498 27.89 20.9198C28.12 20.8198 28.15 20.6798 28.16 20.4598C28.24 19.1898 28.03 17.9598 27.71 16.7298C27.42 15.6198 27.99 14.8998 29.14 14.8998C31.69 14.8998 34.24 14.8998 36.79 14.8998C37.91 14.8998 38.5 15.6098 38.21 16.6898C37.88 17.9198 37.7 19.1498 37.77 20.4198C37.78 20.6798 37.83 20.8098 38.09 20.9298C42.5 22.9498 45.11 26.3698 45.84 31.1598C46.87 37.8698 41.97 44.5498 35.28 45.6498C34.54 45.7698 33.8 45.7798 33.07 45.8998H32.81C31.92 45.7298 31.02 45.8398 30.13 45.8498C22.19 45.8598 14.25 45.8498 6.32 45.8498C6.15 45.8498 5.98 45.8498 5.81 45.8398C4.14 45.7098 2.98 44.8598 2.31 43.3398C2.19 43.0698 2.11 42.7398 2 42.4198C2 42.0198 2 41.6198 2 41.2198ZM18.24 15.0998C19.33 15.0998 20.42 15.0998 21.5 15.0998C21.89 15.0998 22.27 15.0998 22.66 15.0998C23.08 15.0998 23.32 14.8898 23.34 14.5398C23.35 14.1798 23.11 13.9598 22.66 13.9398C22.6 13.9398 22.55 13.9398 22.49 13.9398C19.67 13.9398 16.85 13.9398 14.03 13.9398C13.9 13.9398 13.77 13.9398 13.65 13.9598C13.34 14.0098 13.17 14.1998 13.17 14.5198C13.17 14.8398 13.35 15.0198 13.65 15.0798C13.77 15.0998 13.91 15.0898 14.04 15.0898C15.44 15.0898 16.84 15.0898 18.25 15.0898L18.24 15.0998Z" fill="#B1E346"/>
<path d="M18.2302 43.31C14.2502 43.31 10.2702 43.31 6.29023 43.31C5.56023 43.31 5.00023 43.08 4.70023 42.38C4.46023 41.82 4.61023 41.33 4.93023 40.84C6.84023 37.87 8.75023 34.9 10.6602 31.92C11.2902 30.93 11.9402 29.95 12.5602 28.96C12.7702 28.62 13.0402 28.48 13.4402 28.48C14.6202 28.46 15.7802 28.59 16.9102 28.96C19.0102 29.63 21.1002 29.66 23.1902 28.94C23.6102 28.8 23.9002 28.91 24.1402 29.28C26.6302 33.17 29.1302 37.06 31.6302 40.94C31.9602 41.45 32.0202 41.98 31.7302 42.52C31.4202 43.1 30.9002 43.31 30.2702 43.3C26.2602 43.3 22.2502 43.3 18.2402 43.3L18.2302 43.31ZM18.2402 42.02C20.5402 42.02 22.8502 42.02 25.1502 42.02C26.8202 42.02 28.5002 42.02 30.1702 42.02C30.3102 42.02 30.4702 42.06 30.5602 41.92C30.6602 41.77 30.5302 41.65 30.4602 41.53C29.3802 39.85 28.3002 38.16 27.2202 36.47C27.1002 36.27 26.9902 36.24 26.7802 36.34C26.1502 36.65 25.5102 36.92 24.8802 37.22C22.2202 38.48 19.4802 38.7 16.6602 37.82C15.4502 37.44 14.2102 37.28 12.9402 37.39C11.5702 37.51 10.2602 37.97 8.91023 38.21C8.24023 38.33 7.80023 38.63 7.46023 39.23C7.02023 40.03 6.48023 40.77 5.99023 41.55C5.78023 41.88 5.84023 41.98 6.22023 42C6.33023 42 6.45023 42 6.56023 42C10.4502 42 14.3402 42 18.2302 42L18.2402 42.02ZM9.05023 36.83C9.35023 36.86 9.59023 36.77 9.83023 36.7C12.4402 35.92 15.0202 35.89 17.6302 36.75C19.0802 37.23 20.5902 37.18 22.0802 36.85C23.4702 36.55 24.6902 35.86 25.9802 35.31C26.2802 35.18 26.3302 35.09 26.1402 34.8C25.2202 33.4 24.3202 31.99 23.4302 30.58C23.2802 30.34 23.1502 30.3 22.8802 30.38C20.8002 30.94 18.7202 30.89 16.6702 30.24C15.7902 29.96 14.9002 29.8 13.9702 29.78C13.6802 29.78 13.5102 29.85 13.3502 30.1C11.9902 32.24 10.6202 34.36 9.26023 36.49C9.19023 36.6 9.13023 36.71 9.05023 36.83Z" fill="#B1E346"/>
<path d="M18.2501 11.0802C16.7701 11.0802 15.5701 9.90021 15.5601 8.43021C15.5601 6.92021 16.7401 5.73021 18.2401 5.72021C19.7501 5.72021 20.9401 6.91021 20.9301 8.42021C20.9201 9.91021 19.7401 11.0802 18.2501 11.0802ZM19.6401 8.41021C19.6401 7.63021 19.0401 7.02022 18.2701 7.01022C17.4901 7.01022 16.8701 7.60021 16.8601 8.37021C16.8501 9.17021 17.4601 9.79021 18.2501 9.79021C19.0301 9.79021 19.6401 9.19021 19.6401 8.41021Z" fill="#B1E346"/>
<path d="M35.6798 10.3602C35.6798 11.8402 34.4898 13.0402 33.0198 13.0402C31.5198 13.0402 30.3198 11.8502 30.3198 10.3502C30.3198 8.85017 31.5298 7.65017 33.0198 7.67017C34.4998 7.69017 35.6798 8.87017 35.6798 10.3602ZM34.3898 10.3402C34.3898 9.57017 33.7598 8.96017 32.9898 8.96017C32.2198 8.96017 31.6098 9.58017 31.6098 10.3502C31.6098 11.1402 32.2398 11.7602 33.0298 11.7502C33.7998 11.7402 34.3998 11.1102 34.3898 10.3402Z" fill="#B1E346"/>
<path d="M36.4202 38.41C35.0202 38.41 33.9202 37.28 33.9302 35.89C33.9302 34.5 35.0602 33.39 36.4502 33.4C37.8402 33.4 38.9502 34.53 38.9502 35.92C38.9502 37.31 37.8202 38.42 36.4302 38.41H36.4202ZM37.6502 35.92C37.6502 35.24 37.1102 34.69 36.4302 34.69C35.7602 34.69 35.2302 35.21 35.2102 35.87C35.1902 36.56 35.7102 37.11 36.4002 37.12C37.0802 37.13 37.6402 36.6 37.6402 35.92H37.6502Z" fill="#B1E346"/>
<path d="M15.0598 4.02C15.0598 5.14 14.1698 6.05 13.0598 6.07C11.9398 6.09 11.0098 5.15 11.0098 4.02C11.0198 2.9 11.9298 2 13.0398 2C14.1598 2 15.0598 2.9 15.0598 4.02ZM13.0198 4.77C13.4198 4.78 13.7598 4.45 13.7698 4.04C13.7698 3.63 13.4698 3.3 13.0498 3.29C12.6398 3.29 12.3098 3.6 12.2998 4.01C12.2998 4.41 12.6198 4.76 13.0198 4.77Z" fill="#B1E346"/>
<path d="M17.8398 33.2398C17.8398 34.3698 16.9198 35.2898 15.7898 35.2798C14.6698 35.2798 13.7598 34.3598 13.7598 33.2198C13.7598 32.0898 14.6898 31.1698 15.7998 31.1798C16.9198 31.1798 17.8398 32.1098 17.8298 33.2398H17.8398ZM16.5498 33.2198C16.5498 32.7998 16.1898 32.4598 15.7798 32.4698C15.3798 32.4798 15.0598 32.8198 15.0498 33.2198C15.0498 33.6398 15.3798 33.9898 15.7998 33.9898C16.2198 33.9898 16.5498 33.6498 16.5498 33.2198Z" fill="#B1E346"/>
</svg>
