<svg width="48" height="48" viewBox="0 0 48 48" fill="none" xmlns="http://www.w3.org/2000/svg">
<g clip-path="url(#clip0_214_269)">
<path d="M2 22.4999C2 17.9499 2 13.3999 2 8.8499C2 8.0899 2.22 7.8799 2.98 7.8799C8.36 7.8799 13.73 7.8799 19.11 7.8899C19.53 7.8899 19.62 7.7699 19.6 7.3799C19.57 6.6799 19.58 5.9699 19.6 5.2699C19.6 5.0099 19.53 4.9299 19.27 4.9299C17.24 4.9299 15.21 4.9399 13.18 4.9299C12.9 4.9299 12.83 5.0799 12.72 5.2699C12.22 6.1599 11.22 6.5899 10.27 6.3399C9.26 6.0699 8.61 5.2299 8.61 4.1999C8.61 3.1699 9.26 2.3299 10.28 2.0599C11.21 1.8199 12.24 2.2299 12.7 3.0999C12.87 3.4099 13.05 3.4799 13.37 3.4799C15.63 3.4699 17.89 3.4799 20.15 3.4799C20.82 3.4799 21.07 3.7199 21.07 4.3799C21.07 5.4199 21.07 6.4599 21.07 7.4999C21.07 7.7899 21.13 7.8899 21.44 7.8899C23.15 7.8699 24.86 7.8699 26.57 7.8899C26.88 7.8899 26.95 7.7899 26.95 7.4999C26.93 6.4499 26.95 5.3899 26.95 4.3399C26.95 3.7399 27.21 3.4899 27.82 3.4899C30.11 3.4899 32.4 3.4899 34.69 3.4899C34.97 3.4899 35.15 3.4399 35.3 3.1599C35.78 2.2599 36.79 1.8299 37.74 2.0799C38.75 2.3499 39.41 3.1799 39.41 4.2099C39.41 5.2399 38.76 6.0799 37.75 6.3499C36.8 6.5999 35.79 6.1799 35.3 5.2799C35.17 5.0299 35.03 4.9299 34.75 4.9399C32.78 4.9499 30.81 4.9599 28.84 4.9399C28.5 4.9399 28.39 5.0199 28.41 5.3699C28.44 6.0399 28.45 6.7199 28.41 7.3899C28.38 7.8399 28.56 7.8999 28.95 7.8999C34.28 7.8899 39.61 7.8999 44.94 7.8999C45.83 7.8999 46.02 8.0799 46.02 8.9599C46.02 18.0299 46.02 27.1099 46.02 36.1799C46.02 37.0299 45.83 37.2299 44.97 37.2299C39.87 37.2299 34.77 37.2299 29.67 37.2199C29.25 37.2199 29.14 37.3299 29.15 37.7499C29.18 38.8899 29.17 40.0399 29.15 41.1899C29.15 41.5399 29.22 41.6499 29.6 41.6499C31.83 41.6299 34.06 41.6399 36.29 41.6499C36.99 41.6499 37.23 41.8799 37.23 42.5799C37.23 43.4499 37.23 44.3199 37.23 45.1899C37.23 45.7899 36.97 46.0499 36.36 46.0499C28.14 46.0499 19.93 46.0499 11.71 46.0499C11.1 46.0499 10.84 45.7999 10.84 45.1899C10.84 44.2899 10.84 43.3899 10.84 42.4899C10.84 41.9099 11.1 41.6599 11.68 41.6599C13.94 41.6599 16.2 41.6499 18.46 41.6599C18.83 41.6599 18.91 41.5499 18.91 41.1999C18.89 40.0399 18.89 38.8799 18.91 37.7199C18.91 37.3399 18.82 37.2399 18.44 37.2399C13.32 37.2499 8.21 37.2399 3.09 37.2399C2.23 37.2399 2.04 37.0499 2.04 36.1999C2.04 31.6499 2.04 27.0999 2.04 22.5399L2 22.4999ZM21.8 28.0099C21.8 28.0099 21.71 27.9599 21.67 27.9299C21.45 28.1699 21.24 28.4299 21.01 28.6599C20.57 29.0899 20.18 29.0899 19.74 28.6599C19.12 28.0499 18.5 27.4299 17.89 26.8099C17.44 26.3499 17.45 25.9799 17.89 25.4999C18.11 25.2599 18.4 25.0899 18.55 24.7299C18.27 24.7299 18.05 24.7299 17.82 24.7299C16.82 24.7299 16.67 24.5999 16.67 23.6099C16.67 23.2699 16.52 23.2599 16.26 23.2599C14.06 23.2599 11.86 23.2599 9.66 23.2599C9.36 23.2599 9.18 23.3199 9.02 23.6199C8.55 24.5099 7.51 24.9199 6.56 24.6599C5.55 24.3799 4.92 23.5499 4.92 22.4999C4.92 21.4899 5.57 20.6599 6.57 20.3899C7.52 20.1299 8.56 20.5499 9.02 21.4399C9.18 21.7499 9.37 21.7899 9.66 21.7899C11.8 21.7899 13.94 21.7699 16.07 21.7899C16.55 21.7899 16.69 21.6599 16.66 21.1899C16.62 20.5599 16.9 20.3099 17.54 20.3099C17.87 20.3099 18.19 20.3099 18.52 20.3099C18.55 20.2599 18.57 20.2099 18.6 20.1599C18.36 19.9499 18.11 19.7599 17.88 19.5399C17.42 19.0799 17.42 18.6999 17.88 18.2399C18.36 17.7499 18.85 17.2599 19.34 16.7899C19.52 16.6199 19.6 16.4399 19.59 16.1899C19.59 14.0399 19.58 11.8799 19.59 9.7299C19.59 9.3699 19.48 9.3099 19.15 9.3099C14.06 9.3199 8.98 9.3199 3.89 9.3099C3.54 9.3099 3.43 9.3899 3.43 9.7599C3.44 17.2899 3.44 24.8199 3.43 32.3499C3.43 32.7199 3.54 32.7899 3.89 32.7899C17.28 32.7899 30.68 32.7899 44.07 32.7899C44.4 32.7899 44.51 32.7299 44.51 32.3699C44.5 24.8299 44.5 17.2799 44.51 9.7399C44.51 9.3999 44.42 9.3099 44.08 9.3099C38.98 9.3199 33.88 9.3199 28.78 9.3099C28.48 9.3099 28.36 9.3699 28.36 9.6999C28.38 11.8699 28.37 14.0399 28.36 16.2099C28.36 16.4499 28.43 16.6099 28.6 16.7699C29.11 17.2599 29.6 17.7599 30.09 18.2599C30.52 18.6999 30.52 19.0899 30.09 19.5299C29.86 19.7599 29.61 19.9699 29.36 20.1899C29.39 20.2299 29.41 20.2799 29.44 20.3199C29.69 20.3199 29.95 20.3199 30.2 20.3199C31.12 20.3199 31.29 20.4799 31.29 21.4099C31.29 21.6999 31.36 21.7999 31.67 21.7999C33.91 21.7899 36.16 21.7899 38.4 21.7999C38.65 21.7999 38.77 21.7299 38.89 21.5099C39.39 20.5799 40.39 20.1399 41.36 20.3899C42.37 20.6599 43.03 21.4899 43.03 22.5199C43.03 23.5499 42.38 24.3899 41.37 24.6599C40.4 24.9199 39.4 24.4899 38.9 23.5499C38.77 23.2999 38.62 23.2499 38.37 23.2499C36.22 23.2499 34.06 23.2499 31.91 23.2499C31.51 23.2499 31.3067 23.4499 31.3 23.8499C31.3 24.4599 31.04 24.6999 30.44 24.7199C30.1 24.7299 29.76 24.6599 29.33 24.8099C29.62 25.0799 29.86 25.2799 30.09 25.5099C30.52 25.9499 30.53 26.3399 30.1 26.7799C29.49 27.3999 28.87 28.0199 28.26 28.6299C27.8 29.0799 27.43 29.0699 26.96 28.6299C26.73 28.4099 26.54 28.1299 26.18 27.9399C26.18 28.1899 26.18 28.3699 26.18 28.5499C26.18 28.7299 26.18 28.9199 26.18 29.0999C26.16 29.5699 25.9 29.8399 25.44 29.8499C24.48 29.8599 23.52 29.8599 22.55 29.8499C22.06 29.8499 21.8 29.5699 21.79 29.0799C21.79 28.7199 21.79 28.3599 21.79 27.9999L21.8 28.0099ZM23.97 35.7299H43.63C44.53 35.7299 44.5 35.7299 44.54 34.8199C44.56 34.3699 44.45 34.2399 43.98 34.2399C30.8 34.2499 17.62 34.2499 4.44 34.2499C3.47 34.2499 3.49 34.2499 3.46 35.2199C3.45 35.6099 3.54 35.7299 3.95 35.7299C10.62 35.7099 17.3 35.7199 23.97 35.7199V35.7299ZM29.86 22.5399C29.86 22.3999 29.85 22.2599 29.86 22.1299C29.89 21.8699 29.79 21.7599 29.53 21.7999C28.7 21.9399 28.17 21.6199 28.01 20.7699C28 20.6999 27.95 20.6299 27.91 20.5599C27.65 20.1299 27.73 19.7599 28.09 19.4099C28.61 18.8999 28.6 18.8899 28.09 18.3699C27.59 17.8699 27.58 17.8599 27.08 18.3899C26.73 18.7599 26.36 18.8699 25.9 18.5999C25.8 18.5399 25.68 18.4999 25.56 18.4599C24.76 18.1499 24.7 18.0999 24.74 17.2199C24.76 16.7699 24.66 16.6199 24.18 16.6399C23.28 16.6899 23.27 16.6499 23.27 17.5399C23.27 17.9199 23.14 18.2299 22.77 18.3199C22.2 18.4599 21.7 19.0899 21.04 18.5699C20.8 18.3799 20.62 17.9399 20.34 18.0099C20.06 18.0799 19.85 18.4399 19.61 18.6699C19.6 18.6799 19.59 18.6899 19.58 18.6999C19.4 18.8399 19.36 18.9899 19.57 19.1299C20.3 19.6399 20.4 20.2699 19.92 21.0099C19.9 21.0499 19.89 21.0999 19.88 21.1399C19.74 21.5899 19.45 21.8199 18.96 21.7799C18.79 21.7699 18.62 21.7899 18.46 21.7799C18.07 21.7299 18.09 22.0299 18.16 22.2099C18.29 22.5499 17.77 23.2199 18.45 23.2299C19.3 23.2299 19.83 23.4699 20.01 24.3299C20.03 24.4299 20.1 24.5199 20.15 24.6199C20.32 24.9599 20.26 25.2599 20.02 25.5499C19.83 25.7799 19.42 25.9399 19.48 26.2199C19.54 26.4699 19.88 26.6499 20.1 26.8699C20.12 26.8899 20.15 26.9099 20.17 26.9299C20.34 27.1499 20.49 27.1099 20.64 26.9099C21.12 26.2399 21.71 26.1099 22.41 26.5699C22.48 26.6199 22.58 26.6399 22.67 26.6599C23.12 26.7999 23.35 27.0999 23.3 27.5799C23.29 27.7499 23.31 27.9199 23.3 28.0799C23.26 28.3799 23.45 28.4499 23.65 28.3799C24 28.2499 24.68 28.7299 24.69 28.1099C24.69 27.2099 24.97 26.6899 25.84 26.4999C25.93 26.4799 26.01 26.4299 26.09 26.3899C26.42 26.2299 26.7 26.2899 26.98 26.5199C27.22 26.7199 27.44 27.1299 27.71 27.0699C27.99 27.0099 28.19 26.6299 28.43 26.4099C28.64 26.2199 28.7 26.0599 28.43 25.8699C27.79 25.3999 27.62 24.8399 28.08 24.1399C28.11 24.0899 28.13 24.0299 28.15 23.9699C28.38 23.3499 28.51 23.2599 29.15 23.2599C29.65 23.2599 29.9 23.0166 29.9 22.5299L29.86 22.5399ZM26.19 17.1399C26.7 16.7799 26.96 16.4499 26.94 15.8499C26.89 13.8199 26.92 11.7899 26.94 9.7599C26.94 9.4299 26.87 9.3199 26.52 9.3199C24.84 9.3399 23.16 9.3399 21.49 9.3199C21.15 9.3199 21.06 9.4099 21.06 9.7499C21.08 11.8099 21.09 13.8699 21.06 15.9299C21.05 16.5099 21.35 16.7899 21.81 17.1299C21.81 16.6899 21.81 16.3199 21.81 15.9599C21.82 15.4699 22.09 15.1999 22.58 15.1999C23.53 15.1999 24.47 15.1999 25.42 15.1999C25.93 15.1999 26.19 15.4799 26.2 15.9999C26.2 16.3499 26.2 16.6899 26.2 17.1299L26.19 17.1399ZM23.97 44.5299C27.57 44.5299 31.18 44.5299 34.78 44.5299C35.73 44.5299 35.7 44.5299 35.73 43.5799C35.74 43.1699 35.64 43.0499 35.21 43.0499C27.88 43.0599 20.55 43.0599 13.22 43.0599C12.25 43.0599 12.27 43.0599 12.24 44.0299C12.23 44.4199 12.32 44.5399 12.73 44.5399C16.47 44.5199 20.21 44.5299 23.95 44.5299H23.97ZM23.95 41.5999C25.06 41.5999 26.18 41.5899 27.29 41.5999C27.6 41.5999 27.67 41.4999 27.67 41.2099C27.66 39.9899 27.66 38.7699 27.67 37.5499C27.67 37.2799 27.61 37.1799 27.32 37.1899C25.11 37.1999 22.89 37.1999 20.68 37.1899C20.39 37.1899 20.32 37.2799 20.33 37.5499C20.34 38.7699 20.35 39.9899 20.33 41.2099C20.33 41.5599 20.46 41.5999 20.75 41.5999C21.82 41.5799 22.89 41.5999 23.96 41.5999H23.95ZM11.53 4.1899C11.53 3.8099 11.16 3.4699 10.79 3.4699C10.41 3.4699 10.07 3.8399 10.07 4.2199C10.07 4.5999 10.44 4.9499 10.81 4.9399C11.19 4.9299 11.53 4.5699 11.53 4.1999V4.1899ZM36.47 4.1699C36.45 4.5399 36.78 4.9099 37.16 4.9299C37.53 4.9499 37.9 4.6199 37.92 4.2399C37.94 3.8699 37.6 3.4999 37.23 3.4799C36.86 3.4599 36.49 3.7899 36.47 4.1699ZM7.12 23.2699C7.5 23.2699 7.85 22.9299 7.86 22.5499C7.86 22.1699 7.52 21.8199 7.14 21.8099C6.76 21.8099 6.41 22.1499 6.4 22.5299C6.4 22.9099 6.74 23.2599 7.12 23.2699ZM41.59 22.5599C41.6 22.1899 41.26 21.8199 40.88 21.8099C40.51 21.7999 40.14 22.1399 40.13 22.5199C40.12 22.8999 40.46 23.2599 40.84 23.2699C41.21 23.2899 41.58 22.9399 41.59 22.5599Z" fill="#B1E346"/>
<path d="M10.7999 14.3501C10.7999 15.2201 10.8199 16.0901 10.7999 16.9601C10.7999 17.3101 10.8699 17.4301 11.2399 17.4201C12.2499 17.3901 13.2599 17.4101 14.2599 17.4201C14.8799 17.4201 15.1999 17.6701 15.1999 18.1601C15.1999 18.6301 14.8799 18.8801 14.2899 18.8801C12.9499 18.8801 11.5999 18.8801 10.2599 18.8801C9.58994 18.8801 9.34994 18.6401 9.33994 17.9801C9.33994 16.2201 9.33994 14.4701 9.33994 12.7101C9.33994 12.3801 9.26994 12.2601 8.91994 12.2701C7.89994 12.3001 6.86994 12.2801 5.84994 12.2701C5.25994 12.2701 4.93994 12.0201 4.93994 11.5501C4.93994 11.0701 5.24994 10.8101 5.82994 10.8101C7.18994 10.8101 8.54994 10.8101 9.90994 10.8101C10.5499 10.8101 10.7999 11.0601 10.7999 11.6901C10.7999 12.5801 10.7999 13.4601 10.7999 14.3501Z" fill="#B1E346"/>
<path d="M37.1898 14.3398C37.1898 13.4398 37.1898 12.5398 37.1898 11.6398C37.1898 11.0898 37.4498 10.8198 37.9998 10.8198C39.4198 10.8198 40.8398 10.8198 42.2598 10.8198C42.7598 10.8198 43.0598 11.1198 43.0498 11.5698C43.0398 11.9898 42.7398 12.2798 42.2598 12.2798C41.2098 12.2798 40.1498 12.2998 39.0998 12.2798C38.7498 12.2798 38.6298 12.3498 38.6398 12.7298C38.6598 14.4698 38.6498 16.2098 38.6398 17.9498C38.6398 18.6498 38.4098 18.8898 37.7098 18.8898C36.3698 18.8898 35.0198 18.8898 33.6798 18.8898C33.0898 18.8898 32.7798 18.6298 32.7798 18.1598C32.7798 17.6898 33.0898 17.4298 33.6798 17.4298C34.6998 17.4298 35.7298 17.4198 36.7498 17.4298C37.0798 17.4298 37.1998 17.3598 37.1898 17.0098C37.1598 16.1298 37.1898 15.2398 37.1898 14.3498V14.3398Z" fill="#B1E346"/>
<path d="M26.9201 22.5399C26.9201 24.1699 25.6301 25.4699 23.9901 25.4699C22.3501 25.4699 21.0601 24.1799 21.0601 22.5399C21.0601 20.8999 22.3501 19.6099 23.9901 19.6099C25.6301 19.6099 26.9201 20.8999 26.9201 22.5399ZM25.4501 22.5599C25.4501 21.7799 24.7801 21.0899 24.0001 21.0799C23.2301 21.0699 22.5301 21.7499 22.5201 22.5299C22.5201 23.3099 23.1801 23.9899 23.9701 24.0099C24.7401 24.0199 25.4401 23.3399 25.4501 22.5599Z" fill="#B1E346"/>
</g>
<defs>
<clipPath id="clip0_214_269">
<rect width="43.99" height="44" fill="white" transform="translate(2 2)"/>
</clipPath>
</defs>
</svg>
